<svg width="88" height="75" viewBox="0 0 88 75" fill="none" xmlns="http://www.w3.org/2000/svg">
<path fill-rule="evenodd" clip-rule="evenodd" d="M15.9361 71.6213C15.9361 70.5329 16.7692 69.9642 17.91 69.9642C19.015 69.9642 19.6495 70.4477 19.6495 70.9318V72.3836C19.197 72.953 18.4722 73.3513 17.7473 73.3513C16.6603 73.3513 15.9361 72.6407 15.9361 71.6213ZM45.9734 73.056C43.8538 73.056 42.6213 71.6738 42.5675 69.763H48.8895C49.1074 69.3743 49.2164 68.9086 49.2164 68.4053C49.2164 66.6992 47.9466 64.6957 45.1954 64.6957C42.1689 64.6957 40.1211 66.899 40.1211 69.9819C40.1211 72.7819 42.333 74.9238 45.0498 74.9238C47.7494 74.9238 48.9095 73.609 48.9095 72.6584C48.9095 72.2363 48.7453 72.055 48.5826 71.9336C48.2391 72.3666 47.2604 73.056 45.9734 73.056ZM46.8624 67.9396C46.8624 68.2764 46.8438 68.5281 46.4093 68.5281H42.5861C42.6399 67.3095 43.2566 66.0036 44.8326 66.0036C46.0451 66.0036 46.8438 66.9344 46.8624 67.9396ZM73.8215 73.1072C72.2986 73.1072 71.971 71.9172 71.971 69.5823L71.9896 66.4353C71.9896 65.4683 71.5903 64.8212 70.5405 64.8212C70.3563 64.8212 70.1579 64.8513 69.944 64.8837C69.9257 64.8865 69.9073 64.8893 69.8887 64.8921C69.1466 65.036 67.823 65.662 68.2217 66.6453C69.1811 66.543 69.5984 66.8826 69.5984 67.7575V69.6007C69.5984 71.5196 69.5984 72.8337 70.4674 73.8532C71.0295 74.5078 71.9172 74.9067 72.9683 74.9067C73.9298 74.9067 74.7809 74.5433 75.4334 73.9391C75.7038 73.6813 75.8334 73.5408 75.9741 73.369C76.1748 74.2848 76.3769 74.9238 77.3729 74.9238C77.5255 74.9238 77.7069 74.8965 77.9058 74.8666C77.9316 74.8627 77.9576 74.8588 77.984 74.8549C78.733 74.7178 80.0455 74.2507 79.6531 73.2654C78.6951 73.3683 78.2819 72.9189 78.2819 72.0365C78.2819 71.9823 78.2835 71.8938 78.2857 71.7679C78.2911 71.4584 78.3005 70.9233 78.3005 70.1176C78.3005 68.153 78.3194 67.2805 78.3295 66.8147C78.3332 66.6451 78.3357 66.5294 78.3357 66.4346C78.3357 65.4676 77.9329 64.8205 76.8839 64.8205C76.6952 64.8205 76.4913 64.8516 76.2747 64.8847L76.2307 64.8914C75.4851 65.0353 74.1643 65.6613 74.5623 66.6446C75.521 66.5423 75.9403 66.8819 75.9403 67.7568V70.3038C75.9403 71.6383 75.4851 73.1072 73.8215 73.1072ZM62.3335 64.695C65.269 64.695 67.3885 66.7537 67.3885 69.7828C67.3885 72.816 65.1772 74.9061 62.2432 74.9061C59.4705 74.9061 57.2061 72.8501 57.2061 69.7828C57.2061 66.7537 59.6167 64.695 62.3335 64.695ZM23.3092 73.592C22.4208 73.4706 21.9145 73.2244 21.9145 72.4518V68.8152C21.9145 67.4186 21.878 66.451 21.3717 65.8215C20.8103 65.1062 19.7406 64.6943 17.9831 64.6943C15.7726 64.6943 14.1773 65.6074 14.1773 66.8615C14.1773 67.5441 14.6849 68.0787 15.356 68.0787C16.1168 68.0787 16.5699 67.5093 16.5699 66.8069C16.5699 66.6283 16.5327 66.4339 16.4782 66.2518C16.9499 66.0745 17.5472 66.0036 17.8197 66.0036C19.1412 66.0036 19.6488 66.7339 19.6488 67.8843V69.1684C19.1412 68.9086 18.2914 68.7408 17.4748 68.7408C15.1015 68.7408 13.4165 69.8769 13.4165 71.7945C13.4165 73.6084 14.9208 74.9401 16.9313 74.9401C18.399 74.9401 19.5219 74.0748 19.9033 73.7325C20.2289 74.5931 21.0441 74.9749 21.878 74.9061C22.6201 74.8372 23.2547 74.4894 23.3092 73.592ZM62.3521 73.5224C63.7826 73.5224 64.7979 72.2575 64.7979 69.9301C64.7979 67.4922 63.7102 66.0038 62.2432 66.0043C60.7575 66.0043 59.8519 67.347 59.8519 69.4978C59.8519 72.2582 61.0837 73.5224 62.3521 73.5224ZM30.2836 67.4363C29.6684 67.4363 29.1428 67.0081 29.0883 66.3971C28.5448 66.5048 27.7118 67.094 27.7123 69.3341V71.847C27.7123 72.6741 27.8385 73.0205 28.1289 73.2633C28.3797 73.4527 28.8308 73.5399 29.0414 73.5807C29.0591 73.5841 29.075 73.5872 29.089 73.5899C29.5056 74.488 28.8173 74.7669 26.806 74.7669C24.7948 74.7669 23.9796 74.4874 24.3962 73.5899C24.5776 73.5545 24.8665 73.4692 25.139 73.2633C25.4294 73.0205 25.5376 72.6741 25.5376 71.847V67.6811C25.5376 66.8062 25.1755 66.4687 24.161 66.6617C23.7616 65.677 24.8307 65.1233 25.5556 64.9084C25.7908 64.8375 26.008 64.8007 26.2074 64.8007C27.0771 64.8007 27.4944 65.4478 27.6572 66.3057L27.6937 66.288C28.2186 65.3224 29.1428 64.6766 30.0119 64.6766C30.7733 64.6766 31.5341 65.1594 31.5341 66.0916C31.5341 66.753 31.063 67.4363 30.2836 67.4363ZM56.6088 64.9446H54.0183V63.2596C54.0183 62.1133 54.2893 61.1995 55.5398 61.1995C55.975 61.1995 56.4281 61.3256 56.6447 61.5766C56.5006 61.7546 56.3916 62.041 56.3916 62.311C56.3916 62.9547 56.9716 63.4744 57.5869 63.4744C58.4201 63.4744 58.8187 62.7761 58.8187 62.2026C58.8187 60.8776 57.2793 60 55.3763 60C53.8734 60 52.9126 60.5905 52.3519 61.4504C51.9891 61.9878 51.718 62.7945 51.718 64.2456V64.9623H50.9559C50.34 64.9623 49.9234 65.4833 50.2317 66.215L51.7532 66.2682V71.8476C51.7532 72.6748 51.6449 73.0212 51.3552 73.264C51.0842 73.4692 50.7931 73.5545 50.6124 73.5906C50.1965 74.4887 51.0297 74.7676 53.0402 74.7676C55.0508 74.7676 56.0302 74.488 55.6136 73.5906C55.5889 73.5858 55.5558 73.58 55.5163 73.5732C55.2661 73.5297 54.7605 73.4419 54.5252 73.264C54.2355 73.0212 54.0907 72.6748 54.0907 71.8476V66.3057C54.2388 66.3057 54.4166 66.3133 54.6108 66.3216C54.8443 66.3315 55.1015 66.3425 55.3591 66.3425C55.5398 66.3425 55.7391 66.3425 55.9205 66.3234C56.5006 66.2689 56.9171 65.6777 56.6088 64.9446ZM38.5278 67.4363C37.9119 67.4363 37.3863 67.0081 37.3319 66.3971C36.7884 66.5048 35.9553 67.094 35.9559 69.3341V71.847C35.9559 72.6741 36.0828 73.0205 36.3725 73.2633C36.6234 73.4524 37.0735 73.5396 37.2841 73.5805C37.3021 73.5839 37.3183 73.5871 37.3325 73.5899C37.7498 74.488 37.0601 74.7669 35.0496 74.7669C33.0397 74.7669 32.2238 74.4873 32.6411 73.5899C32.8218 73.5545 33.1108 73.4692 33.3825 73.2633C33.6729 73.0205 33.7805 72.6741 33.7805 71.847V67.6811C33.7805 66.8062 33.4191 66.4687 32.4045 66.6617C32.0051 65.677 33.0742 65.1232 33.7998 64.9084C34.035 64.8375 34.2529 64.8007 34.4516 64.8007C35.3213 64.8007 35.7386 65.4478 35.9007 66.3057L35.9379 66.288C36.4621 65.3224 37.3863 64.6766 38.2561 64.6766C39.0168 64.6766 39.7776 65.1594 39.7776 66.0916C39.7776 66.753 39.3072 67.4363 38.5278 67.4363ZM86.7606 67.4363C86.142 67.4363 85.6123 67.0081 85.5516 66.3971C85.0108 66.5048 84.1921 67.094 84.1914 69.3341V71.8469C84.1914 72.6741 84.3135 73.0205 84.5894 73.2633C84.8442 73.4486 85.2823 73.5361 85.4918 73.578C85.5143 73.5824 85.5342 73.5864 85.5509 73.5899C85.9716 74.488 85.2915 74.7669 83.281 74.7669C81.2712 74.7669 80.4483 74.4873 80.869 73.5899C81.0422 73.5544 81.3408 73.4692 81.6009 73.2633C81.9002 73.0205 82.0043 72.6741 82.0043 71.8469V67.6811C82.0043 66.8062 81.6477 66.4686 80.6297 66.6616C80.2414 65.6769 81.307 65.1232 82.0216 64.9084C82.2699 64.8375 82.4761 64.8007 82.6885 64.8007C83.5424 64.8007 83.9631 65.4478 84.1218 66.3057L84.1749 66.288C84.6984 65.3224 85.6123 64.6766 86.4786 64.6766C87.2503 64.6766 88.0001 65.1594 88.0001 66.0916C88.0001 66.753 87.529 67.4363 86.7606 67.4363ZM6.57579 75C3.15133 75 0 72.3228 0 67.8024C0 63.4858 3.07822 60.5476 6.50337 60.5481C9.58366 60.5481 11.739 62.6968 11.739 64.4712C11.739 65.4225 11.1424 66.1187 10.363 66.1187C9.56573 66.1187 8.89532 65.582 8.89532 64.6683C8.89532 64.1171 9.17822 63.7995 9.40766 63.5418C9.42435 63.5231 9.44076 63.5047 9.45675 63.4865C9.03947 62.6975 8.1525 62.0347 6.77512 62.0347C4.49146 62.0347 2.91614 64.3996 2.91614 67.7839C2.91614 71.1642 4.56457 73.5148 6.84685 73.5148C8.22423 73.5148 9.11189 72.8595 9.52917 72.063C9.5188 72.0516 9.50826 72.0401 9.49757 72.0285C9.26529 71.7752 8.96774 71.4508 8.96774 70.8901C8.96774 69.9715 9.63746 69.4369 10.4348 69.4369C11.2142 69.4369 11.8115 70.127 11.8115 71.0762C11.8115 72.8588 9.65608 75 6.57579 75Z" fill="#004E9F"/>
<path d="M29.9948 1.62141L10.5883 20.7679C9.61901 21.6072 9 22.5928 9 24.0031C9 25.407 9.6197 26.3961 10.5883 27.2419L29.9948 46.3819C30.1194 46.5119 30.2398 46.5637 30.3422 46.5637C30.526 46.5637 30.6527 46.3933 30.6472 46.193C30.6416 46.0752 30.5915 45.9395 30.4766 45.8224C25.9214 40.0507 22.607 33.4311 22.607 24.0727C22.607 14.7086 25.9214 7.95906 30.4766 2.1831C30.5915 2.06735 30.6416 1.93386 30.6472 1.81314C30.6534 1.60863 30.526 1.44317 30.3422 1.44317C30.2398 1.44115 30.1194 1.49217 29.9948 1.62141Z" fill="#E3000D"/>
<path d="M44.9143 0C37.3156 0 34.3466 10.9817 34.3466 24.071C34.3466 37.1646 37.3156 48 44.9143 48C49.4744 48 53.3611 45.2768 53.3736 43.0385C53.3756 42.5486 53.1905 42.0792 52.7874 41.6694C50.626 39.5399 49.7807 37.4117 49.7745 35.5335C49.7605 31.9482 52.8103 29.2775 55.622 29.2775C59.4871 29.2775 61.7668 32.3756 61.7668 36.3877C61.7668 40.1896 60.1785 43.3559 58.4503 45.8917C58.3821 45.9954 58.3515 46.1111 58.3515 46.2127C58.3529 46.4115 58.4677 46.5748 58.6397 46.5748C58.7442 46.5748 58.8667 46.518 59.0004 46.381L78.4118 27.2409C79.381 26.3959 80 25.406 80 24.0021C80 22.5926 79.3803 21.6062 78.4118 20.7669L59.0004 1.62045C58.8674 1.48482 58.7449 1.4273 58.6397 1.4273C58.4664 1.4273 58.3528 1.59204 58.3515 1.79158C58.3515 1.89384 58.3821 2.00817 58.4503 2.11326C60.1778 4.64548 61.7668 7.81537 61.7668 11.6144C61.7668 15.6236 59.4871 18.7247 55.622 18.7247C52.8103 18.7247 49.7605 16.0561 49.7745 12.4701C49.7807 10.5919 50.626 8.46157 52.7874 6.3341C53.1905 5.92224 53.3757 5.45713 53.3736 4.96645C53.3611 2.72466 49.4744 0 44.9143 0Z" fill="#004E9F"/>
</svg>
