<svg width="24" height="24" viewBox="0 0 24 24" fill="none" xmlns="http://www.w3.org/2000/svg">
<path d="M5.4 8.25C3.7425 8.25 2.4 6.85156 2.4 5.125C2.4 3.39844 3.7425 2 5.4 2C7.0575 2 8.4 3.39844 8.4 5.125C8.4 6.85156 7.0575 8.25 5.4 8.25ZM19.2 8.25C17.5425 8.25 16.2 6.85156 16.2 5.125C16.2 3.39844 17.5425 2 19.2 2C20.8575 2 22.2 3.39844 22.2 5.125C22.2 6.85156 20.8575 8.25 19.2 8.25ZM0 13.668C0 11.3672 1.7925 9.5 4.00125 9.5H5.6025C6.19875 9.5 6.765 9.63672 7.275 9.87891C7.22625 10.1602 7.20375 10.4531 7.20375 10.75C7.20375 12.2422 7.83375 13.582 8.8275 14.5H0.79875C0.36 14.5 0 14.125 0 13.668ZM15.1988 14.5H15.1725C16.17 13.582 16.7963 12.2422 16.7963 10.75C16.7963 10.4531 16.77 10.1641 16.725 9.87891C17.235 9.63281 17.8013 9.5 18.3975 9.5H19.9988C22.2075 9.5 24 11.3672 24 13.668C24 14.1289 23.64 14.5 23.2013 14.5H15.1988ZM15.6 10.75C15.6 12.8203 13.9875 14.5 12 14.5C10.0125 14.5 8.4 12.8203 8.4 10.75C8.4 8.67969 10.0125 7 12 7C13.9875 7 15.6 8.67969 15.6 10.75ZM4.8 20.957C4.8 18.082 7.03875 15.75 9.79875 15.75H14.2013C16.9613 15.75 19.2 18.082 19.2 20.957C19.2 21.5312 18.7537 22 18.1987 22H5.80125C5.25 22 4.8 21.5352 4.8 20.957Z" fill="#0E1217"/>
</svg>
