<svg width="24" height="24" viewBox="0 0 24 24" fill="none" xmlns="http://www.w3.org/2000/svg">
<path d="M2.23125 13.9759L10.7016 22.4523C11.0531 22.804 11.5172 23 12 23C12.4828 23 12.9469 22.804 13.2984 22.4523L21.7687 13.9759C23.1938 12.5539 24 10.5592 24 8.47399V8.18257C24 4.6704 21.6328 1.67576 18.4031 1.09793C16.2656 0.716067 14.0906 1.46473 12.5625 3.10273L12 3.70568L11.4375 3.10273C9.90938 1.46473 7.73438 0.716067 5.59688 1.09793C2.36719 1.67576 0 4.6704 0 8.18257V8.47399C0 10.5592 0.80625 12.5539 2.23125 13.9759Z" fill="#0E1217"/>
</svg>
