<svg width="102" height="102" viewBox="0 0 102 102" fill="none" xmlns="http://www.w3.org/2000/svg">
<path d="M78.6177 36.2937C79.341 36.2716 80.0616 36.3924 80.7383 36.649C81.4149 36.9057 82.0344 37.2932 82.5611 37.7895C83.0879 38.2857 83.5117 38.8809 83.8082 39.5411C84.1048 40.2012 84.2683 40.9133 84.2894 41.6367C84.2668 40.9142 84.3868 40.1943 84.6426 39.5182C84.8983 38.8421 85.2847 38.223 85.7798 37.6963C86.2749 37.1695 86.8689 36.7455 87.5279 36.4485C88.1869 36.1514 88.898 35.9871 89.6205 35.9649C88.8982 35.9873 88.1785 35.8671 87.5026 35.6112C86.8267 35.3554 86.2079 34.9689 85.6814 34.4738C85.1549 33.9788 84.731 33.3849 84.4341 32.726C84.1372 32.0671 83.9729 31.3562 83.9508 30.6339C83.9926 32.0912 83.4546 33.5056 82.4547 34.5667C81.4549 35.6278 80.0749 36.2489 78.6177 36.2937Z" fill="white"/>
<path d="M7.45679 43.6149C7.94809 43.5994 8.42548 43.7794 8.78408 44.1156C9.14268 44.4518 9.35317 44.9166 9.36929 45.4079C9.35476 44.9167 9.53515 44.4397 9.87106 44.081C10.207 43.7223 10.6712 43.5111 11.1623 43.4934C10.6709 43.5085 10.1936 43.3283 9.8348 42.9922C9.476 42.6562 9.26492 42.1917 9.24776 41.7004C9.26335 42.1916 9.0836 42.6689 8.74789 43.0278C8.41218 43.3866 7.9479 43.5978 7.45679 43.6149Z" fill="white"/>
<path d="M75.7031 50.4123C73.8045 52.2633 72.2956 54.4756 71.2654 56.9189C70.2351 59.3621 69.7045 61.9869 69.7047 64.6385V66.6586H7.17188V57.0184C7.17182 54.4799 8.14093 52.0372 9.88125 50.1892L19.9677 41.6487H46.0195V44.4955L40.7163 54.6955C40.3429 55.414 40.1609 56.2167 40.1879 57.026C40.2149 57.8353 40.4499 58.624 40.8703 59.3161C41.2908 60.0082 41.8824 60.5803 42.5882 60.9773C43.294 61.3743 44.0901 61.5827 44.8999 61.5825H58.1998C58.9791 61.5825 59.7509 61.429 60.4709 61.1307C61.1909 60.8325 61.8452 60.3953 62.3963 59.8443C62.9473 59.2932 63.3845 58.6389 63.6827 57.9189C63.981 57.1989 64.1345 56.4271 64.1345 55.6478V47.8424L61.7538 36.1243L61.1462 33.1201H66.6187L68.1986 36.1243L75.7031 50.4123Z" fill="#A9AFC4"/>
<path style="mix-blend-mode:multiply" d="M68.1866 36.1243H61.7459L61.1363 33.1201H66.6088L68.1866 36.1243Z" fill="url(#paint0_linear_12442_21664)"/>
<path style="mix-blend-mode:multiply" d="M46.0116 44.5134H16.8679L19.9677 41.7025H46.0116V44.5134Z" fill="url(#paint1_linear_12442_21664)"/>
<path d="M19.9677 41.6487C19.0038 41.6466 18.08 41.2622 17.3992 40.5798C16.7183 39.8975 16.3359 38.9729 16.3359 38.0089V37.7021C16.337 36.7389 16.7198 35.8154 17.4006 35.1339C18.0813 34.4524 19.0045 34.0685 19.9677 34.0664H31.1638C31.7069 34.0665 32.2432 34.1876 32.7336 34.421L36.5407 36.2419C37.0314 36.4767 37.5685 36.5985 38.1125 36.5985H46.0813C46.5598 36.5982 47.0336 36.6923 47.4757 36.8753C47.9178 37.0584 48.3194 37.3268 48.6577 37.6652C48.9959 38.0037 49.2641 38.4055 49.4469 38.8476C49.6297 39.2898 49.7235 39.7637 49.723 40.2422V41.6566H19.9677V41.6487Z" fill="#FFBA15"/>
<path d="M81.339 77.6953C79.1609 77.6953 77.0317 77.0494 75.2207 75.8393C73.4096 74.6292 71.9981 72.9092 71.1645 70.8969C70.331 68.8846 70.1129 66.6703 70.5378 64.534C70.9628 62.3977 72.0116 60.4354 73.5518 58.8953C75.092 57.3551 77.0543 56.3062 79.1906 55.8813C81.3268 55.4564 83.5411 55.6744 85.5535 56.508C87.5658 57.3415 89.2858 58.7531 90.4959 60.5641C91.706 62.3752 92.3519 64.5044 92.3519 66.6825C92.3487 69.6023 91.1874 72.4016 89.1228 74.4662C87.0582 76.5309 84.2589 77.6921 81.339 77.6953ZM81.339 56.865C79.3973 56.865 77.4992 57.4408 75.8847 58.5195C74.2703 59.5983 73.0119 61.1316 72.2689 62.9255C71.5258 64.7194 71.3314 66.6934 71.7102 68.5978C72.089 70.5022 73.024 72.2515 74.397 73.6245C75.77 74.9975 77.5193 75.9325 79.4237 76.3114C81.3282 76.6902 83.3021 76.4957 85.096 75.7527C86.89 75.0096 88.4232 73.7513 89.502 72.1368C90.5808 70.5223 91.1565 68.6242 91.1565 66.6825C91.1555 64.0783 90.1211 61.581 88.2804 59.7388C86.4397 57.8966 83.9432 56.8602 81.339 56.857V56.865Z" fill="#5E6175"/>
<path d="M81.339 77.0897C87.0912 77.0897 91.7542 72.4267 91.7542 66.6746C91.7542 60.9224 87.0912 56.2594 81.339 56.2594C75.5869 56.2594 70.9239 60.9224 70.9239 66.6746C70.9239 72.4267 75.5869 77.0897 81.339 77.0897Z" fill="#5E6175"/>
<path d="M81.339 71.0832C83.7739 71.0832 85.7477 69.1094 85.7477 66.6745C85.7477 64.2397 83.7739 62.2658 81.339 62.2658C78.9041 62.2658 76.9303 64.2397 76.9303 66.6745C76.9303 69.1094 78.9041 71.0832 81.339 71.0832Z" fill="#F5F5F5"/>
<path d="M81.9168 67.4754C81.7482 67.5996 81.5568 67.6894 81.3535 67.7396C81.1502 67.7898 80.939 67.7995 80.7319 67.768C80.5249 67.7366 80.3261 67.6646 80.1469 67.5563C79.9677 67.448 79.8116 67.3054 79.6875 67.1367L74.0317 59.4867L76.6036 57.5862L82.2534 65.2382C82.379 65.4069 82.4699 65.5988 82.521 65.8028C82.5721 66.0068 82.5822 66.2189 82.5509 66.4269C82.5196 66.6349 82.4475 66.8346 82.3386 67.0145C82.2298 67.1945 82.0864 67.3511 81.9168 67.4754Z" fill="#F5F5F5"/>
<path d="M79.2014 67.4933L73.197 59.3672L76.7311 56.7594L82.7336 64.8915C83.0791 65.3584 83.2252 65.9434 83.1396 66.5179C83.0541 67.0925 82.7439 67.6095 82.2773 67.9555C82.0454 68.1281 81.7816 68.2532 81.5011 68.3234C81.2207 68.3937 80.9291 68.4077 80.6432 68.3648C80.3572 68.3218 80.0826 68.2227 79.8352 68.0731C79.5878 67.9235 79.3724 67.7265 79.2014 67.4933ZM74.8684 59.6122L80.1616 66.7841C80.2392 66.8897 80.3369 66.9789 80.449 67.0466C80.5612 67.1144 80.6856 67.1594 80.8151 67.179C80.9446 67.1986 81.0768 67.1925 81.2039 67.161C81.3311 67.1294 81.4508 67.0731 81.5562 66.9953C81.6617 66.9177 81.751 66.82 81.8187 66.7079C81.8865 66.5957 81.9315 66.4713 81.9511 66.3418C81.9707 66.2123 81.9646 66.0801 81.933 65.953C81.9015 65.8258 81.8452 65.7061 81.7673 65.6007L76.4721 58.4289L74.8684 59.6122Z" fill="#5E6175"/>
<path d="M21.167 77.6953C18.9889 77.6953 16.8596 77.0494 15.0486 75.8393C13.2376 74.6292 11.826 72.9092 10.9925 70.8969C10.1589 68.8846 9.94086 66.6703 10.3658 64.534C10.7907 62.3977 11.8396 60.4354 13.3798 58.8953C14.9199 57.3551 16.8822 56.3062 19.0185 55.8813C21.1548 55.4564 23.3691 55.6744 25.3814 56.508C27.3937 57.3415 29.1137 58.7531 30.3238 60.5641C31.5339 62.3752 32.1798 64.5044 32.1798 66.6825C32.1766 69.6023 31.0154 72.4016 28.9507 74.4662C26.8861 76.5309 24.0868 77.6921 21.167 77.6953ZM21.167 56.865C19.2253 56.865 17.3272 57.4408 15.7127 58.5195C14.0982 59.5983 12.8399 61.1316 12.0968 62.9255C11.3537 64.7194 11.1593 66.6934 11.5381 68.5978C11.9169 70.5022 12.852 72.2515 14.225 73.6245C15.598 74.9975 17.3473 75.9325 19.2517 76.3114C21.1561 76.6902 23.1301 76.4957 24.924 75.7527C26.7179 75.0096 28.2512 73.7513 29.3299 72.1368C30.4087 70.5223 30.9845 68.6242 30.9845 66.6825C30.9834 64.0783 29.949 61.581 28.1083 59.7388C26.2677 57.8966 23.7712 56.8602 21.167 56.857V56.865Z" fill="#5E6175"/>
<path d="M21.167 77.0897C26.9191 77.0897 31.5821 72.4267 31.5821 66.6746C31.5821 60.9224 26.9191 56.2594 21.167 56.2594C15.4149 56.2594 10.7518 60.9224 10.7518 66.6746C10.7518 72.4267 15.4149 77.0897 21.167 77.0897Z" fill="#5E6175"/>
<path d="M31.5821 66.6745C31.5821 68.7344 30.9713 70.7481 29.8269 72.4609C28.6824 74.1736 27.0558 75.5086 25.1527 76.2969C23.2496 77.0852 21.1554 77.2914 19.1351 76.8895C17.1148 76.4877 15.2589 75.4957 13.8024 74.0391C12.3458 72.5826 11.3538 70.7268 10.952 68.7064C10.5501 66.6861 10.7563 64.5919 11.5446 62.6888C12.3329 60.7857 13.6679 59.1591 15.3806 58.0146C17.0934 56.8702 19.1071 56.2594 21.167 56.2594C22.5354 56.257 23.8908 56.5248 25.1555 57.0474C26.4202 57.5699 27.5693 58.337 28.5369 59.3046C29.5045 60.2722 30.2716 61.4213 30.7942 62.686C31.3167 63.9507 31.5845 65.3061 31.5821 66.6745Z" fill="#5E6175"/>
<path d="M21.167 71.0832C23.6019 71.0832 25.5757 69.1094 25.5757 66.6745C25.5757 64.2397 23.6019 62.2658 21.167 62.2658C18.7321 62.2658 16.7583 64.2397 16.7583 66.6745C16.7583 69.1094 18.7321 71.0832 21.167 71.0832Z" fill="#F5F5F5"/>
<path style="mix-blend-mode:multiply" d="M31.5821 66.6745C31.5835 67.7796 31.4086 68.8778 31.0642 69.9278H11.2718C10.8069 68.4973 10.6574 66.9831 10.8335 65.4893C11.0096 63.9956 11.5071 62.5577 12.2919 61.2745C13.0767 59.9914 14.1301 58.8934 15.3797 58.0562C16.6292 57.219 18.0453 56.6623 19.5305 56.4245C21.0157 56.1868 22.5348 56.2735 23.9833 56.6788C25.4318 57.084 26.7753 57.7982 27.9215 58.7723C29.0676 59.7463 29.9892 60.957 30.6229 62.3211C31.2565 63.6852 31.5872 65.1704 31.5921 66.6745H31.5821Z" fill="url(#paint2_linear_12442_21664)"/>
<path d="M35.5725 57.0164V66.6566H7.17188V57.0184C7.17185 54.479 8.14172 52.0354 9.88324 50.1872C10.8143 49.1986 11.9377 48.4108 13.1844 47.8722C14.4311 47.3337 15.7748 47.0557 17.1328 47.0555H25.6116C26.9713 47.0544 28.3168 47.3316 29.5653 47.8702C30.8139 48.4088 31.9389 49.1974 32.8711 50.1872C34.6085 52.0365 35.5747 54.479 35.5725 57.0164Z" fill="#DEE1EC"/>
<path d="M70.3043 67.2562H6.57423V57.0184C6.57058 54.3266 7.59865 51.7357 9.44696 49.7788C9.52267 49.7071 12.6962 47.0216 19.7486 41.051H46.6172V44.637L41.2383 54.9684C40.9132 55.5958 40.755 56.2962 40.7789 57.0024C40.8028 57.7086 41.0081 58.3967 41.3749 59.0006C41.7417 59.6045 42.2577 60.1039 42.8733 60.4507C43.4889 60.7975 44.1834 60.9801 44.89 60.9809H58.1898C59.6048 60.9793 60.9614 60.4165 61.9619 59.4159C62.9625 58.4154 63.5253 57.0588 63.5269 55.6438V47.9041L60.4051 32.5225H66.9793L76.4522 50.5279L76.1315 50.8386C74.2951 52.6381 72.835 54.7849 71.8363 57.1541C70.8376 59.5233 70.3202 62.0675 70.3143 64.6385L70.3043 67.2562ZM7.76954 66.0609H69.109V64.6385C69.1213 59.2763 71.2247 54.1303 74.972 50.2948L66.2482 33.7138H61.8654L64.7202 47.7786V55.6438C64.7181 57.3756 64.0292 59.0359 62.8046 60.2606C61.58 61.4852 59.9197 62.1741 58.1878 62.1762H44.89C43.978 62.1753 43.0817 61.9398 42.2871 61.4922C41.4926 61.0446 40.8266 60.4001 40.3534 59.6206C39.8801 58.8411 39.6154 57.9529 39.5847 57.0415C39.5541 56.1301 39.7586 55.2261 40.1784 54.4166L45.4219 44.3501V42.2463H20.1868L10.2936 50.6235C8.66889 52.3561 7.76617 54.6432 7.76954 57.0184V66.0609Z" fill="#5E6175"/>
<path d="M36.1702 67.2542H6.57422V57.0184C6.57422 54.2181 7.68664 51.5324 9.66676 49.5523C11.6469 47.5722 14.3325 46.4598 17.1328 46.4598H25.6116C28.4119 46.4598 31.0975 47.5722 33.0776 49.5523C35.0577 51.5324 36.1702 54.2181 36.1702 57.0184V67.2542ZM7.76953 66.0589H34.9748V57.0164C34.9748 54.5331 33.9884 52.1515 32.2324 50.3955C30.4764 48.6396 28.0949 47.6531 25.6116 47.6531H17.1328C14.6495 47.6531 12.2679 48.6396 10.512 50.3955C8.75602 52.1515 7.76953 54.5331 7.76953 57.0164V66.0589Z" fill="#5E6175"/>
<path d="M50.3207 42.2463H19.9677C18.8456 42.2432 17.7704 41.7955 16.9777 41.0013C16.185 40.207 15.7393 39.1311 15.7383 38.0089V37.7021C15.7404 36.5807 16.1865 35.5058 16.9791 34.7124C17.7717 33.9191 18.8463 33.4719 19.9677 33.4688H31.1638C31.7966 33.4696 32.4213 33.6112 32.9926 33.8831L36.7997 35.704C37.2097 35.8995 37.6583 36.0009 38.1125 36.0008H46.0813C47.2058 36.0013 48.2841 36.4484 49.0791 37.2438C49.8741 38.0391 50.3207 39.1177 50.3207 40.2422V42.2463ZM19.9677 34.6641C19.1633 34.6672 18.3928 34.9884 17.8243 35.5576C17.2559 36.1268 16.9357 36.8977 16.9336 37.7021V38.0089C16.9346 38.8154 17.2555 39.5886 17.8258 40.1588C18.396 40.7291 19.1692 41.05 19.9757 41.051H49.1254V40.2422C49.1243 39.4357 48.8035 38.6626 48.2332 38.0923C47.6629 37.522 46.8898 37.2012 46.0833 37.2001H38.1145C37.4817 37.1992 36.8571 37.0577 36.2857 36.7857L32.4727 34.9569C32.0625 34.7616 31.614 34.6602 31.1598 34.6601L19.9677 34.6641Z" fill="#5E6175"/>
<path d="M69.7047 66.6745V64.6385C69.7044 61.9869 70.235 59.3621 71.2652 56.9188C72.2954 54.4755 73.8044 52.2632 75.7031 50.4123H76.6653C79.9445 50.4123 82.8929 50.986 85.5904 52.3587C87.6597 53.4183 89.2651 55.2046 90.0987 57.375H80.8709L70.882 66.6745H69.7047Z" fill="#A9AFC4"/>
<path style="mix-blend-mode:multiply" d="M89.8477 60.6502H82.1558L72.169 69.9437H71.4498C71.099 68.8895 70.9208 67.7856 70.9219 66.6745V66.6367L80.8709 57.375H86.0505C87.5625 58.1435 88.8655 59.2674 89.8477 60.6502Z" fill="url(#paint3_linear_12442_21664)"/>
<path d="M69.7047 66.6745V64.6385C69.7044 61.9869 70.235 59.3621 71.2652 56.9188C72.2954 54.4755 73.8044 52.2632 75.7031 50.4123H76.6653C79.9445 50.4123 82.8929 50.986 85.5904 52.3587C87.6597 53.4183 89.2651 55.2046 90.0987 57.375H80.8709L70.882 66.6745H69.7047Z" fill="#A9AFC4"/>
<path d="M71.1211 67.2722H69.107V64.6385C69.107 59.3453 71.1669 54.0002 75.4621 49.8146H76.6574C80.1875 49.8146 83.1957 50.4721 85.8533 51.8267C88.0615 52.9535 89.773 54.8595 90.6565 57.1758L90.9693 57.9886H81.1059L71.1211 67.2722ZM70.3063 66.0769H70.6509L80.6358 56.7773H89.1803C88.342 55.1014 86.9899 53.7374 85.3214 52.8846C82.8352 51.6196 80.0063 51.004 76.6673 51.004H75.9502C72.3445 54.6246 70.3146 59.5228 70.3023 64.6325L70.3063 66.0769Z" fill="#5E6175"/>
<path d="M71.1211 67.2722H69.107V64.6385C69.107 59.3453 71.1669 54.0002 75.4621 49.8146H76.6574C80.1875 49.8146 83.1957 50.4721 85.8533 51.8267C88.0615 52.9535 89.773 54.8595 90.6565 57.1758L90.9693 57.9886H81.1059L71.1211 67.2722ZM70.3063 66.0769H70.6509L80.6358 56.7773H89.1803C88.342 55.1014 86.9899 53.7374 85.3214 52.8846C82.8352 51.6196 80.0063 51.004 76.6673 51.004H75.9502C72.3445 54.6246 70.3146 59.5228 70.3023 64.6325L70.3063 66.0769Z" fill="#5E6175"/>
<path d="M61.1363 33.1201L60.8932 31.863C60.8317 31.5497 60.8404 31.2265 60.9187 30.9169C60.9969 30.6073 61.1429 30.3188 61.3459 30.0723C61.549 29.8258 61.8042 29.6274 62.0931 29.4913C62.382 29.3552 62.6975 29.2848 63.0169 29.2852H65.2342C65.2342 29.2852 66.8658 24.9023 70.388 24.9023H72.3642V31.7375C72.3637 32.1023 72.2184 32.4519 71.9603 32.7097C71.7022 32.9674 71.3524 33.1122 70.9876 33.1122L61.1363 33.1201Z" fill="#DEE1EC"/>
<path d="M70.9876 33.7178H60.6422L60.3055 31.9766C60.2276 31.5767 60.2392 31.1645 60.3394 30.7695C60.4396 30.3746 60.626 30.0067 60.8852 29.6923C61.1443 29.3779 61.4699 29.1248 61.8384 28.9511C62.207 28.7773 62.6094 28.6873 63.0169 28.6875H64.8397C65.9016 26.3586 67.828 24.3047 70.388 24.3047H72.9599V31.7375C72.9607 31.9971 72.9103 32.2543 72.8115 32.4944C72.7128 32.7345 72.5677 32.9528 72.3845 33.1367C72.2013 33.3206 71.9836 33.4666 71.7439 33.5663C71.5042 33.6661 71.2472 33.7175 70.9876 33.7178ZM61.6243 32.5225H70.9876C71.1935 32.5219 71.3908 32.4399 71.5364 32.2943C71.682 32.1487 71.7641 31.9514 71.7646 31.7455V25.5H70.388C68.093 25.5 66.4534 27.7392 65.6486 29.8828H63.0169C62.7863 29.8827 62.5586 29.9336 62.35 30.0319C62.1414 30.1301 61.9571 30.2733 61.8103 30.4511C61.6635 30.6289 61.5579 30.837 61.5009 31.0604C61.444 31.2839 61.4371 31.5171 61.4809 31.7435L61.6243 32.5225Z" fill="#5E6175"/>
<path d="M59.4051 35.8594C58.959 35.8594 58.523 35.7271 58.1522 35.4793C57.7813 35.2315 57.4923 34.8793 57.3216 34.4672C57.1509 34.0552 57.1062 33.6017 57.1932 33.1643C57.2803 32.7268 57.495 32.325 57.8104 32.0096C58.1258 31.6942 58.5276 31.4794 58.9651 31.3924C59.4026 31.3054 59.856 31.35 60.2681 31.5207C60.6801 31.6914 61.0324 31.9805 61.2802 32.3513C61.528 32.7222 61.6602 33.1582 61.6602 33.6042C61.6592 34.202 61.4212 34.775 60.9985 35.1977C60.5758 35.6204 60.0028 35.8583 59.4051 35.8594ZM59.4051 32.5444C59.1954 32.5444 58.9905 32.6065 58.8162 32.723C58.642 32.8394 58.5061 33.005 58.4259 33.1986C58.3457 33.3923 58.3247 33.6054 58.3656 33.811C58.4065 34.0166 58.5074 34.2054 58.6556 34.3536C58.8039 34.5019 58.9927 34.6028 59.1983 34.6437C59.4039 34.6846 59.617 34.6636 59.8106 34.5834C60.0043 34.5032 60.1698 34.3673 60.2863 34.193C60.4027 34.0187 60.4649 33.8138 60.4649 33.6042C60.4644 33.3233 60.3525 33.054 60.1539 32.8554C59.9553 32.6567 59.686 32.5449 59.4051 32.5444Z" fill="#5E6175"/>
<path d="M59.4051 35.2617C60.3205 35.2617 61.0626 34.5196 61.0626 33.6042C61.0626 32.6888 60.3205 31.9467 59.4051 31.9467C58.4896 31.9467 57.7476 32.6888 57.7476 33.6042C57.7476 34.5196 58.4896 35.2617 59.4051 35.2617Z" fill="#5E6175"/>
<path d="M70.9876 33.1201C70.4265 33.1201 69.8883 32.8972 69.4916 32.5004C69.0948 32.1037 68.8719 31.5655 68.8719 31.0044C68.8705 30.5781 68.9983 30.1614 69.2385 29.8091L69.7584 29.0441C69.9522 28.7587 70.213 28.525 70.5179 28.3635C70.8228 28.2021 71.1626 28.1177 71.5076 28.1177H72.3642V31.7375C72.365 31.9188 72.33 32.0985 72.2611 32.2662C72.1923 32.4339 72.091 32.5863 71.9631 32.7148C71.8352 32.8433 71.6832 32.9452 71.5158 33.0148C71.3484 33.0843 71.1689 33.1201 70.9876 33.1201Z" fill="#F5F5F5"/>
<path d="M70.9876 33.7178C70.4959 33.7156 70.014 33.5801 69.5932 33.3256C69.1725 33.0711 68.8287 32.7072 68.5984 32.2727C68.3682 31.8382 68.2602 31.3494 68.2859 30.8584C68.3116 30.3673 68.4701 29.8924 68.7444 29.4844L69.2644 28.7194C69.5119 28.3517 69.8459 28.0505 70.237 27.8421C70.6281 27.6337 71.0644 27.5245 71.5076 27.524H72.9599V31.7415C72.9602 32.0008 72.9093 32.2575 72.8104 32.4972C72.7114 32.7368 72.5662 32.9546 72.3831 33.1381C72.1999 33.3216 71.9824 33.4673 71.743 33.5667C71.5036 33.6662 71.2469 33.7175 70.9876 33.7178ZM71.5076 28.7233C71.2599 28.7233 71.0161 28.7839 70.7973 28.8999C70.5785 29.0159 70.3915 29.1838 70.2525 29.3887L69.7266 30.1517C69.5724 30.3801 69.4832 30.646 69.4684 30.9211C69.4537 31.1962 69.514 31.4701 69.6429 31.7136C69.7718 31.9571 69.9644 32.161 70.2003 32.3034C70.4361 32.4459 70.7061 32.5216 70.9816 32.5224C71.1875 32.5219 71.3849 32.4399 71.5305 32.2943C71.676 32.1487 71.7581 31.9514 71.7586 31.7455V28.7233H71.5076Z" fill="#5E6175"/>
<path d="M94.8281 76.492H7.17188V77.6873H94.8281V76.492Z" fill="#5E6175"/>
<path d="M12.8649 28.8819L12.0197 29.7271L14.73 32.4374L15.5752 31.5922L12.8649 28.8819Z" fill="white"/>
<path d="M13.1464 34.5764H9.31348V35.7717H13.1464V34.5764Z" fill="white"/>
<path d="M18.6788 26.0718H17.4835V29.9047H18.6788V26.0718Z" fill="white"/>
<defs>
<linearGradient id="paint0_linear_12442_21664" x1="61.1363" y1="34.6222" x2="68.1886" y2="34.6222" gradientUnits="userSpaceOnUse">
<stop stop-color="#CACFDD"/>
<stop offset="1" stop-color="#EEF0F1"/>
</linearGradient>
<linearGradient id="paint1_linear_12442_21664" x1="16.8679" y1="43.1069" x2="46.0116" y2="43.1069" gradientUnits="userSpaceOnUse">
<stop stop-color="#CACFDD"/>
<stop offset="1" stop-color="#EEF0F1"/>
</linearGradient>
<linearGradient id="paint2_linear_12442_21664" x1="10.7518" y1="63.0946" x2="31.5821" y2="63.0946" gradientUnits="userSpaceOnUse">
<stop stop-color="#CACFDD"/>
<stop offset="1" stop-color="#EEF0F1"/>
</linearGradient>
<linearGradient id="paint3_linear_12442_21664" x1="70.9239" y1="63.6623" x2="89.8377" y2="63.6623" gradientUnits="userSpaceOnUse">
<stop stop-color="#CACFDD"/>
<stop offset="1" stop-color="#EEF0F1"/>
</linearGradient>
</defs>
</svg>
