<svg width="102" height="102" viewBox="0 0 102 102" fill="none" xmlns="http://www.w3.org/2000/svg">
<path d="M90.4646 64.6056L87.6388 67.4314L88.484 68.2766L91.3098 65.4508L90.4646 64.6056Z" fill="white"/>
<path d="M85.3632 61.7639H84.1679V65.7602H85.3632V61.7639Z" fill="white"/>
<path d="M94.2604 70.3124H90.264V71.5077H94.2604V70.3124Z" fill="white"/>
<path d="M78.5978 25.1176C78.5978 19.0175 75.0955 12.533 70.7744 12.533C66.4534 12.533 62.9511 19.0175 62.9511 25.1176C62.9511 29.604 64.8437 32.6301 67.565 33.9191C67.9188 34.0807 68.2168 34.3434 68.4214 34.6743C68.626 35.0051 68.728 35.3891 68.7145 35.7778C68.4117 42.4915 67.1526 70.8064 67.1526 70.8064C67.1388 71.2841 67.2195 71.7598 67.3902 72.2061C67.561 72.6524 67.8182 73.0605 68.1473 73.407C68.4764 73.7535 68.8707 74.0315 69.3077 74.225C69.7446 74.4184 70.2155 74.5236 70.6932 74.5344C71.1709 74.5451 71.6461 74.4613 72.0913 74.2877C72.5365 74.1141 72.943 73.8542 73.2873 73.5229C73.6317 73.1916 73.9071 72.7955 74.0978 72.3573C74.2884 71.9191 74.3905 71.4476 74.3982 70.9698C74.3982 70.916 74.3982 70.8622 74.3982 70.8064C74.3982 70.8064 73.1392 42.4915 72.8383 35.7778C72.8243 35.389 72.9261 35.0047 73.1307 34.6738C73.3354 34.3429 73.6337 34.0802 73.9878 33.9191C76.7032 32.6301 78.5978 29.604 78.5978 25.1176Z" fill="url(#paint0_linear_12442_20472)"/>
<path d="M33.8114 31.9687C34.6953 30.8831 35.1345 29.5027 35.0406 28.1059L34.1242 14.5311V27.6895C34.1252 27.9495 34.0749 28.207 33.9762 28.4475C33.8774 28.6879 33.7322 28.9065 33.5488 29.0907C33.3653 29.2749 33.1473 29.421 32.9073 29.5207C32.6672 29.6204 32.4099 29.6718 32.1499 29.6718H26.012C25.4884 29.6718 24.9862 29.4638 24.616 29.0935C24.2457 28.7233 24.0377 28.2211 24.0377 27.6975V14.5311L23.1253 28.1059C23.0311 29.503 23.4712 30.8838 24.3565 31.9687L25.9502 33.9171C26.5278 34.626 26.9201 35.4674 27.0918 36.3655L25.4701 70.8064C25.4483 71.2956 25.5259 71.784 25.6981 72.2424C25.8703 72.7007 26.1335 73.1193 26.472 73.4731C26.8105 73.8268 27.2172 74.1083 27.6675 74.3006C28.1177 74.4928 28.6023 74.5918 29.0919 74.5916C29.5813 74.5915 30.0657 74.4924 30.5158 74.3C30.9658 74.1076 31.3722 73.8261 31.7105 73.4724C32.0488 73.1187 32.3119 72.7001 32.484 72.2419C32.656 71.7837 32.7335 71.2954 32.7117 70.8064L31.0801 36.3655C31.2527 35.4677 31.6449 34.6265 32.2216 33.9171L33.8114 31.9687Z" fill="url(#paint1_linear_12442_20472)"/>
<path d="M53.2871 7.95687C52.8693 7.56004 52.3637 7.26763 51.8114 7.10351C51.2591 6.93939 50.6758 6.90821 50.1091 7.01253C49.5425 7.11685 49.0085 7.3537 48.5509 7.70374C48.0933 8.05379 47.7249 8.5071 47.4759 9.02668C46.3044 11.4452 44.6868 15.9834 44.6868 22.6214C44.6742 25.743 44.8511 28.8625 45.2167 31.9627C45.6098 35.1026 46.7373 38.1057 48.5078 40.7284C49.1351 41.6717 49.4616 42.7831 49.4441 43.9159L46.9878 70.6909C46.942 71.1855 47 71.6843 47.1581 72.1553C47.3161 72.6263 47.5708 73.0591 47.9057 73.4261C48.2405 73.7931 48.6483 74.0861 49.103 74.2864C49.5576 74.4868 50.049 74.59 50.5458 74.5896H50.8885C51.8358 74.5896 52.7444 74.2132 53.4142 73.5434C54.0841 72.8735 54.4605 71.9649 54.4605 71.0176V10.6463C54.4609 10.1414 54.3569 9.64176 54.1549 9.17892C53.953 8.71608 53.6575 8.30002 53.2871 7.95687Z" fill="url(#paint2_linear_12442_20472)"/>
<path style="mix-blend-mode:multiply" d="M32.7017 70.8064C32.7017 70.8622 32.7017 70.916 32.7017 70.9698C32.7026 71.4531 32.6068 71.9316 32.4199 72.3773C32.233 72.8231 31.9589 73.2269 31.6136 73.5651C31.2683 73.9032 30.8589 74.1689 30.4094 74.3465C29.9599 74.5241 29.4794 74.6099 28.9962 74.599C28.5131 74.5881 28.037 74.4807 27.5959 74.283C27.1549 74.0854 26.7579 73.8015 26.4282 73.4481C26.0985 73.0947 25.8428 72.6789 25.6762 72.2253C25.5097 71.7716 25.4355 71.2892 25.4581 70.8064L25.8267 62.9731C27.9437 62.3091 30.0847 61.7366 32.2495 61.2559L32.7017 70.8064Z" fill="url(#paint3_linear_12442_20472)"/>
<path style="mix-blend-mode:multiply" d="M74.3982 70.9698C74.3911 71.4479 74.2894 71.9199 74.0991 72.3585C73.9087 72.797 73.6335 73.1936 73.2892 73.5254C72.9449 73.8571 72.5383 74.1174 72.0929 74.2914C71.6476 74.4653 71.1722 74.5493 70.6942 74.5387C70.2162 74.528 69.745 74.4229 69.3078 74.2293C68.8706 74.0358 68.476 73.7576 68.1468 73.4109C67.8176 73.0641 67.5603 72.6557 67.3897 72.209C67.2191 71.7624 67.1385 71.2864 67.1527 70.8085C67.1527 70.8085 67.3419 66.5054 67.5949 60.8595C69.7584 61.2938 71.9007 61.8144 74.0217 62.4214C74.2389 67.2803 74.3942 70.8085 74.3942 70.8085C74.3962 70.8623 74.3982 70.9101 74.3982 70.9698Z" fill="url(#paint4_linear_12442_20472)"/>
<path style="mix-blend-mode:multiply" d="M50.8526 59.2C52.0599 59.2 53.2625 59.2252 54.4605 59.2757V71.0176C54.4605 71.9651 54.0842 72.8739 53.4144 73.5441C52.7445 74.2143 51.836 74.5911 50.8885 74.5916H50.5438C50.0472 74.5918 49.556 74.4883 49.1016 74.2878C48.6472 74.0874 48.2397 73.7943 47.905 73.4274C47.5703 73.0605 47.3159 72.6277 47.1579 72.1569C47 71.686 46.942 71.1874 46.9878 70.6929L48.0376 59.2498C48.9514 59.2179 49.8671 59.2019 50.7849 59.2019L50.8526 59.2Z" fill="url(#paint5_linear_12442_20472)"/>
<path d="M70.7744 75.1893C70.2043 75.189 69.6401 75.0733 69.1158 74.8493C68.5915 74.6252 68.118 74.2973 67.7238 73.8854C67.3296 73.4735 67.0228 72.9861 66.8219 72.4525C66.6211 71.9189 66.5303 71.3502 66.555 70.7805C66.555 70.7805 67.816 42.4636 68.1169 35.7519C68.1255 35.482 68.0546 35.2155 67.9129 34.9856C67.7712 34.7557 67.565 34.5726 67.32 34.459C64.1683 32.9688 62.3634 29.5642 62.3634 25.1176C62.3535 18.894 65.9573 11.9413 70.7744 11.9413C75.5916 11.9413 79.1954 18.9 79.1954 25.1236C79.1954 29.5682 77.3885 32.9728 74.2389 34.465C73.9915 34.5765 73.7826 34.7589 73.6387 34.989C73.4948 35.2191 73.4222 35.4866 73.43 35.7579C73.7328 42.4696 74.9919 70.7865 74.9919 70.7865C74.9919 70.8523 74.9919 70.914 74.9919 70.9758C74.9887 72.093 74.5433 73.1635 73.7529 73.9531C72.9626 74.7427 71.8916 75.1872 70.7744 75.1893ZM70.7744 13.1306C67.059 13.1306 63.5488 18.9558 63.5488 25.1176C63.5488 29.0821 65.1047 32.0903 67.822 33.3792C68.2821 33.5915 68.6691 33.9352 68.9342 34.367C69.1994 34.7988 69.3309 35.2993 69.3122 35.8057C69.0094 42.5174 67.7503 70.8343 67.7503 70.8343C67.7323 71.2427 67.7971 71.6504 67.941 72.033C68.0849 72.4155 68.3047 72.765 68.5873 73.0602C68.8699 73.3555 69.2094 73.5905 69.5853 73.7509C69.9612 73.9114 70.3657 73.9941 70.7744 73.9939C71.5765 73.9934 72.3456 73.6747 72.913 73.1077C73.4803 72.5408 73.7995 71.7719 73.8006 70.9698C73.8006 70.922 73.8006 70.8762 73.8006 70.8284C73.8006 70.8284 72.5395 42.5174 72.2387 35.8057C72.2198 35.2996 72.351 34.7991 72.6158 34.3674C72.8806 33.9356 73.2672 33.5918 73.7269 33.3792C76.4422 32.0923 78.0001 29.0821 78.0001 25.1176C78.0001 18.9558 74.4879 13.1366 70.7744 13.1366V13.1306Z" fill="#5E6175"/>
<path d="M29.082 75.1873C28.5118 75.1879 27.9475 75.0729 27.4231 74.8492C26.8986 74.6255 26.425 74.2978 26.0308 73.8859C25.6366 73.474 25.33 72.9865 25.1295 72.4527C24.9291 71.919 24.8389 71.3502 24.8645 70.7806L26.4822 36.4114C26.324 35.6367 25.9824 34.9112 25.4861 34.2957L23.8923 32.3473C22.9091 31.146 22.421 29.6148 22.5277 28.0661L23.4441 14.4953L24.6394 14.5352V27.6936C24.6399 28.0585 24.7851 28.4083 25.0432 28.6664C25.3012 28.9244 25.651 29.0696 26.016 29.0702H32.1499C32.5149 29.0696 32.8647 28.9244 33.1227 28.6664C33.3808 28.4083 33.526 28.0585 33.5265 27.6936V14.5312L34.7218 14.4913L35.6382 28.0621C35.7481 29.6112 35.2629 31.1438 34.2816 32.3473L32.6878 34.2957C32.1906 34.9099 31.8489 35.635 31.6917 36.4094L33.3094 70.7786C33.3347 71.3482 33.2443 71.917 33.0438 72.4507C32.8432 72.9844 32.5367 73.472 32.1425 73.884C31.7484 74.296 31.2749 74.6239 30.7506 74.8479C30.2263 75.0719 29.6621 75.1873 29.0919 75.1873H29.082ZM23.723 28.861C23.7996 29.8612 24.1814 30.8139 24.8167 31.5903L26.4104 33.5386C27.0457 34.3243 27.478 35.254 27.6695 36.246L27.6814 36.3158V36.3855L26.0598 70.8264C26.0416 71.2347 26.1064 71.6425 26.2501 72.0251C26.3939 72.4077 26.6136 72.7572 26.8961 73.0526C27.1786 73.3479 27.5181 73.583 27.8939 73.7436C28.2698 73.9042 28.6742 73.987 29.083 73.987C29.4917 73.987 29.8962 73.9042 30.272 73.7436C30.6478 73.583 30.9873 73.3479 31.2698 73.0526C31.5523 72.7572 31.772 72.4077 31.9158 72.0251C32.0595 71.6425 32.1243 71.2347 32.1061 70.8264L30.4825 36.3158L30.4964 36.246C30.6868 35.2511 31.1208 34.3189 31.7595 33.5327L33.3532 31.5843C33.9885 30.8079 34.3703 29.8553 34.4469 28.855C34.2303 29.2757 33.9018 29.6285 33.4976 29.8745C33.0934 30.1206 32.6291 30.2503 32.1559 30.2495H26.012C25.5398 30.2503 25.0765 30.1212 24.6727 29.8763C24.269 29.6314 23.9404 29.2801 23.723 28.861Z" fill="#5E6175"/>
<path d="M27.9763 14.5352H26.781V29.6678H27.9763V14.5352Z" fill="#5E6175"/>
<path d="M31.379 14.5352H30.1837V29.6678H31.379V14.5352Z" fill="#5E6175"/>
<path d="M50.8884 75.1873H50.5458C49.9659 75.1878 49.3923 75.0673 48.8617 74.8335C48.331 74.5997 47.855 74.2577 47.4641 73.8294C47.0732 73.4012 46.7759 72.8961 46.5913 72.3464C46.4067 71.7967 46.3388 71.2145 46.392 70.6371L48.8464 43.892C48.8578 42.888 48.5669 41.9037 48.0117 41.0671C46.1921 38.3639 45.0321 35.2715 44.625 32.0385C44.2575 28.9137 44.0792 25.7696 44.0911 22.6234C44.0911 16.0293 45.641 11.4492 46.9399 8.76773C47.3657 7.90075 48.0723 7.20333 48.9448 6.7889C49.8173 6.37447 50.8043 6.26741 51.7454 6.48512C52.6864 6.70284 53.5261 7.23253 54.128 7.98804C54.7298 8.74356 55.0583 9.68046 55.0601 10.6464V71.0096C55.0585 72.1161 54.6186 73.1769 53.8368 73.9598C53.055 74.7428 51.9949 75.1841 50.8884 75.1873ZM50.7749 7.55847C50.1981 7.55687 49.6327 7.71861 49.144 8.02499C48.6554 8.33136 48.2635 8.76984 48.0137 9.28968C46.7686 11.8576 45.2844 16.2623 45.2844 22.6234C45.2728 25.7211 45.4484 28.8166 45.8103 31.893C46.1937 34.9393 47.2853 37.8534 48.9978 40.4017C49.6911 41.442 50.0529 42.6679 50.0358 43.9179V43.9717L47.5774 70.7467C47.5394 71.1587 47.5878 71.574 47.7196 71.9662C47.8514 72.3584 48.0636 72.7188 48.3426 73.0242C48.6216 73.3297 48.9614 73.5736 49.34 73.7402C49.7187 73.9069 50.128 73.9926 50.5418 73.992H50.8844C51.6721 73.9883 52.4265 73.6737 52.9836 73.1167C53.5406 72.5597 53.8551 71.8053 53.8588 71.0176V10.6464C53.8586 10.2241 53.7712 9.80636 53.6022 9.41936C53.4332 9.03235 53.1862 8.68437 52.8766 8.39718C52.5508 8.08604 52.1604 7.85068 51.7331 7.70789C51.423 7.61042 51.0999 7.56006 50.7749 7.55847Z" fill="#5E6175"/>
<path d="M50.7869 62.4053C39.0592 62.4126 27.4718 64.9571 16.8201 69.8641C18.9198 74.4209 21.0216 78.9784 23.1253 83.5365C31.8081 79.5382 41.2526 77.464 50.8117 77.4561C60.3709 77.4482 69.8188 79.5067 78.5082 83.4907L84.7835 69.8083C74.1185 64.9157 62.5206 62.3902 50.7869 62.4053Z" fill="#DEE1EC"/>
<path d="M9.49078 83.6938L10.6582 85.3912C13.1141 85.5056 15.5605 85.7717 17.9835 86.1881C17.1454 88.3928 16.4317 90.6429 15.8459 92.9276L17.0153 94.617C19.8242 92.6808 22.7942 90.9892 25.8925 89.5608C24.9628 87.5527 24.0377 85.5446 23.1173 83.5365C22.197 81.5283 21.2699 79.5202 20.3363 77.5121C16.5515 79.2599 12.9232 81.328 9.49078 83.6938Z" fill="#DEE1EC"/>
<path d="M84.6839 94.617L85.8513 92.9197C85.2664 90.6347 84.5527 88.3846 83.7137 86.1801C86.1367 85.7639 88.5832 85.4977 91.039 85.3833L92.2084 83.6859C88.7735 81.3214 85.1424 79.2552 81.355 77.5101C80.4253 79.5183 79.5003 81.5264 78.5799 83.5345L75.8047 89.5589C78.9037 90.9878 81.8744 92.6801 84.6839 94.617Z" fill="#DEE1EC"/>
<path d="M25.8925 89.5609C26.526 89.2674 27.1635 88.9871 27.805 88.7202C28.5082 85.9819 29.392 83.2932 30.4506 80.6718C27.9542 81.4808 25.5082 82.4374 23.1253 83.5365C24.047 85.5446 24.9694 87.5528 25.8925 89.5609Z" fill="#BCC2D4"/>
<path d="M75.8127 89.5609C75.1792 89.2674 74.5424 88.9871 73.9022 88.7202C73.1981 85.9822 72.3143 83.2935 71.2566 80.6718C73.7551 81.4801 76.2032 82.4368 78.5878 83.5365L75.8127 89.5609Z" fill="#BCC2D4"/>
<path d="M22.8265 84.3294L16.0272 69.5713L16.569 69.3163C27.294 64.3566 38.9707 61.793 50.7868 61.8037H50.8546C62.6473 61.7827 74.3034 64.3271 85.0146 69.2605L85.5585 69.5095L78.785 84.2796L78.2432 84.0305C69.6557 80.0759 60.3108 78.0365 50.8566 78.054H50.8028C41.3298 78.0451 31.9685 80.1002 23.3704 84.0764L22.8265 84.3294ZM17.6129 70.159L23.4122 82.7456C32.0183 78.8576 41.3552 76.8513 50.7988 76.8607H50.8546C60.2787 76.8442 69.5983 78.8347 78.1934 82.6998L83.9707 70.1032C73.5633 65.4039 62.2718 62.9831 50.8526 63.003H50.7868C39.3447 62.9915 28.0329 65.4315 17.6129 70.159Z" fill="#5E6175"/>
<path d="M16.8619 95.4478L15.2004 93.0353L15.2681 92.7723C15.7982 90.7001 16.4332 88.6561 17.1707 86.6483C15.0043 86.3074 12.8209 86.0853 10.6303 85.9829L10.3355 85.969L8.66003 83.5405L9.1521 83.2018C12.6142 80.8155 16.2747 78.7307 20.0932 76.9703L20.6351 76.7192L26.6853 89.8517L26.1435 90.1028C23.0744 91.5181 20.1319 93.1929 17.348 95.1091L16.8619 95.4478ZM16.4933 92.8062L17.1707 93.7883C19.6967 92.0846 22.3479 90.5742 25.1016 89.27L20.0514 78.313C16.6707 79.9084 13.4184 81.7626 10.3235 83.8592L10.9829 84.8175C13.3636 84.9394 15.735 85.2008 18.0851 85.6004L18.8003 85.7239L18.5433 86.3933C17.7438 88.492 17.0595 90.6328 16.4933 92.8062Z" fill="#5E6175"/>
<path d="M84.8433 95.4478L84.3512 95.1091C81.5701 93.1928 78.6302 91.5179 75.5636 90.1028L75.0198 89.8517L81.07 76.7192L81.6139 76.9703C85.432 78.7316 89.0924 80.8164 92.555 83.2018L93.0471 83.5405L91.3717 85.9729L91.0748 85.9869C88.8849 86.0881 86.7022 86.3089 84.5365 86.6483C85.2741 88.6547 85.9091 90.6973 86.439 92.7683L86.5067 93.0313L84.8433 95.4478ZM76.6056 89.272C79.3592 90.5762 82.0104 92.0866 84.5365 93.7903L85.2138 92.8081C84.6458 90.6354 83.9615 88.4947 83.1638 86.3953L82.9049 85.716L83.622 85.5924C85.9714 85.1928 88.3422 84.9314 90.7222 84.8095L91.3836 83.8513C88.2886 81.756 85.0363 79.9031 81.6558 78.309L76.6056 89.272Z" fill="#5E6175"/>
<path d="M25.6016 90.3538L22.3284 83.2437L22.8723 82.9927C25.2789 81.8849 27.7489 80.9203 30.2693 80.104L31.4865 79.7056L31.0084 80.8889C29.9616 83.4851 29.0858 86.1471 28.3867 88.8577L28.313 89.1465L28.04 89.2601C27.4085 89.5251 26.771 89.806 26.1475 90.0928L25.6016 90.3538ZM23.9222 83.8314L26.1973 88.77C26.5658 88.6047 26.9384 88.4413 27.3109 88.2839C27.9002 86.034 28.6105 83.8174 29.4385 81.644C27.5599 82.2894 25.7151 83.0226 23.9222 83.8314Z" fill="#5E6175"/>
<path d="M76.1055 90.3537L75.5637 90.1027C74.9381 89.8158 74.3026 89.5349 73.6711 89.27L73.3962 89.1564L73.3225 88.8676C72.624 86.157 71.7489 83.4951 70.7027 80.8988L70.2246 79.7155L71.4398 80.1139C73.9608 80.9305 76.4314 81.8951 78.8388 83.0026L79.3807 83.2536L76.1055 90.3537ZM74.4062 88.2839C74.7768 88.4412 75.1493 88.6046 75.5198 88.7699L77.7949 83.8313C76.002 83.0225 74.1452 82.2894 72.2786 81.6399C73.1059 83.815 73.8161 86.0328 74.4062 88.2839Z" fill="#5E6175"/>
<path d="M18.9875 64.1007C18.4166 64.0986 17.8697 63.8701 17.4671 63.4652C17.0645 63.0603 16.8389 62.5122 16.84 61.9412C16.841 61.3702 17.0686 60.823 17.4727 60.4196C17.8768 60.0162 18.4245 59.7897 18.9955 59.7897C19.5665 59.7897 20.1142 60.0162 20.5183 60.4196C20.9224 60.823 21.15 61.3702 21.1511 61.9412C21.1521 62.5122 20.9266 63.0603 20.5239 63.4652C20.1213 63.8701 19.5745 64.0986 19.0035 64.1007H18.9875ZM18.9875 60.975C18.7309 60.9761 18.4852 61.0787 18.3041 61.2606C18.123 61.4424 18.0213 61.6886 18.0213 61.9452C18.0222 62.0719 18.0481 62.1972 18.0977 62.3138C18.1473 62.4304 18.2195 62.536 18.3102 62.6245C18.3995 62.7151 18.5063 62.7866 18.6241 62.8346C18.742 62.8825 18.8683 62.9059 18.9955 62.9034C19.2516 62.9013 19.4964 62.7979 19.6764 62.6157C19.8564 62.4334 19.9568 62.1874 19.9557 61.9313C19.9536 61.6764 19.8509 61.4327 19.6699 61.2532C19.489 61.0737 19.2444 60.973 18.9895 60.973L18.9875 60.975Z" fill="white"/>
<path d="M9.25371 73.6114C8.80725 73.6114 8.37907 73.4341 8.06337 73.1184C7.74767 72.8027 7.57031 72.3745 7.57031 71.928C7.57031 71.4816 7.74767 71.0534 8.06337 70.7377C8.37907 70.422 8.80725 70.2446 9.25371 70.2446H9.26566C9.71213 70.2446 10.1403 70.422 10.456 70.7377C10.7717 71.0534 10.9491 71.4816 10.9491 71.928C10.9491 72.3745 10.7717 72.8027 10.456 73.1184C10.1403 73.4341 9.71213 73.6114 9.26566 73.6114H9.25371ZM9.25371 71.4399C9.12408 71.441 9.00015 71.4934 8.90904 71.5856C8.81794 71.6778 8.76709 71.8024 8.76762 71.932C8.76788 71.9962 8.78084 72.0597 8.80576 72.1188C8.83068 72.1779 8.86706 72.2316 8.9128 72.2766C8.95855 72.3216 9.01276 72.3571 9.07229 72.381C9.13183 72.405 9.19552 72.4169 9.25969 72.4161C9.35615 72.4155 9.45028 72.3864 9.53019 72.3323C9.6101 72.2783 9.6722 72.2018 9.70865 72.1125C9.7451 72.0231 9.75427 71.925 9.73499 71.8305C9.71572 71.736 9.66887 71.6493 9.60035 71.5814C9.55523 71.536 9.50149 71.5002 9.44231 71.4759C9.38312 71.4516 9.31968 71.4394 9.2557 71.4399H9.25371Z" fill="white"/>
<defs>
<linearGradient id="paint0_linear_12442_20472" x1="70.7744" y1="28.0522" x2="70.7744" y2="74.2293" gradientUnits="userSpaceOnUse">
<stop stop-color="#CACFDD"/>
<stop offset="0.442708" stop-color="#EEF0F1"/>
</linearGradient>
<linearGradient id="paint1_linear_12442_20472" x1="29.0829" y1="29.5644" x2="29.0829" y2="74.2952" gradientUnits="userSpaceOnUse">
<stop stop-color="#CACFDD"/>
<stop offset="0.442708" stop-color="#EEF0F1"/>
</linearGradient>
<linearGradient id="paint2_linear_12442_20472" x1="49.5733" y1="23.8819" x2="49.5733" y2="74.2558" gradientUnits="userSpaceOnUse">
<stop stop-color="#CACFDD"/>
<stop offset="0.442708" stop-color="#EEF0F1"/>
</linearGradient>
<linearGradient id="paint3_linear_12442_20472" x1="29.0819" y1="56.62" x2="29.0819" y2="73.6134" gradientUnits="userSpaceOnUse">
<stop stop-color="#CACFDD"/>
<stop offset="1" stop-color="#EEF0F1"/>
</linearGradient>
<linearGradient id="paint4_linear_12442_20472" x1="70.7744" y1="56.6201" x2="70.7744" y2="73.6135" gradientUnits="userSpaceOnUse">
<stop stop-color="#CACFDD"/>
<stop offset="1" stop-color="#EEF0F1"/>
</linearGradient>
<linearGradient id="paint5_linear_12442_20472" x1="50.7151" y1="56.6201" x2="50.7151" y2="73.6134" gradientUnits="userSpaceOnUse">
<stop stop-color="#CACFDD"/>
<stop offset="1" stop-color="#EEF0F1"/>
</linearGradient>
</defs>
</svg>
