<svg width="102" height="102" viewBox="0 0 102 102" fill="none" xmlns="http://www.w3.org/2000/svg">
<path style="mix-blend-mode:multiply" d="M75.9024 70.4916H71.5595L59.1442 58.0782L58.1481 59.0843C56.5173 60.7155 54.3171 61.6502 52.011 61.6914C49.7048 61.7327 47.4726 60.8773 45.7845 59.3054L42.597 56.3371L52.2253 46.7068C53.1848 47.0888 54.056 47.663 54.7852 48.3942L46.9221 56.2554L47.8245 57.0961C48.941 58.1325 50.4156 58.6959 51.9387 58.668C53.4617 58.6401 54.9147 58.0232 55.9925 56.9467L59.1282 53.809L73.3604 68.0412C73.711 68.2723 73.6194 68.2105 75.9024 70.4916Z" fill="url(#paint0_linear_12442_20242)"/>
<path d="M46.932 56.2614L54.7414 48.452C55.4455 47.7474 56.2815 47.1884 57.2017 46.8069C58.1219 46.4254 59.1082 46.2289 60.1044 46.2287H84.2696V67.4774H72.8085L59.1461 53.8149L56.0084 56.9606C54.9306 58.0373 53.4774 58.6542 51.9542 58.6817C50.431 58.7092 48.9564 58.1451 47.8404 57.108L46.932 56.2614Z" fill="#DEE1EC"/>
<path d="M61.7121 57.2276L58.7238 54.2393L59.5705 53.3946L62.5588 56.3829C63.9918 57.8125 65.9334 58.6154 67.9576 58.6154C69.9818 58.6154 71.9234 57.8125 73.3564 56.3829L74.1712 55.5661L75.0179 56.4128L74.2011 57.2276C72.5434 58.8807 70.2978 59.8091 67.9566 59.8091C65.6155 59.8091 63.3698 58.8807 61.7121 57.2276Z" fill="#5E6175"/>
<path d="M31.8054 75.9741C32.4029 76.5702 33.2125 76.905 34.0566 76.905C34.9006 76.905 35.7102 76.5702 36.3077 75.9741L39.3697 72.9101C39.6872 72.6193 39.9425 72.2672 40.1202 71.8751C40.2978 71.4829 40.3942 71.0588 40.4035 70.6284C40.4128 70.198 40.3348 69.7701 40.1743 69.3707C40.0137 68.9712 39.7738 68.6084 39.4692 68.3042C39.1646 67.9999 38.8014 67.7606 38.4018 67.6005C38.0021 67.4405 37.5741 67.363 37.1437 67.3729C36.7133 67.3828 36.2894 67.4797 35.8974 67.6579C35.5055 67.8361 35.1538 68.0919 34.8634 68.4098L31.7994 71.4717C31.2041 72.0701 30.8704 72.8801 30.8715 73.7242C30.8726 74.5682 31.2085 75.3773 31.8054 75.9741Z" fill="#DEE1EC"/>
<path d="M37.4871 79.2951C38.0845 79.8906 38.8937 80.2249 39.7372 80.2249C40.5808 80.2249 41.39 79.8906 41.9874 79.2951L45.0554 76.2271C45.3794 75.9383 45.6411 75.5865 45.8243 75.193C46.0075 74.7996 46.1085 74.3728 46.121 73.939C46.1334 73.5052 46.0572 73.0734 45.8969 72.67C45.7366 72.2667 45.4956 71.9003 45.1887 71.5935C44.8818 71.2866 44.5154 71.0456 44.1121 70.8853C43.7088 70.7249 43.277 70.6487 42.8431 70.6612C42.4093 70.6736 41.9826 70.7746 41.5891 70.9578C41.1957 71.1411 40.8438 71.4027 40.555 71.7267L37.4871 74.7947C36.8916 75.3922 36.5572 76.2013 36.5572 77.0449C36.5572 77.8884 36.8916 78.6976 37.4871 79.2951Z" fill="#DEE1EC"/>
<path d="M43.0532 82.7296C43.6507 83.3251 44.4599 83.6595 45.3034 83.6595C46.147 83.6595 46.9561 83.3251 47.5536 82.7296L50.9642 79.319C51.5055 78.7115 51.794 77.92 51.7706 77.1067C51.7472 76.2934 51.4137 75.5198 50.8384 74.9445C50.263 74.3691 49.4894 74.0356 48.6761 74.0122C47.8628 73.9888 47.0713 74.2773 46.4639 74.8186L43.0532 78.2293C42.4577 78.8267 42.1234 79.6359 42.1234 80.4794C42.1234 81.323 42.4577 82.1321 43.0532 82.7296Z" fill="#DEE1EC"/>
<path d="M49.0916 85.694C49.689 86.2894 50.4982 86.6238 51.3417 86.6238C52.1853 86.6238 52.9944 86.2894 53.5919 85.694L56.5403 82.7455C57.0854 82.1385 57.377 81.3455 57.3549 80.53C57.3329 79.7144 56.999 78.9383 56.422 78.3616C55.845 77.7848 55.0688 77.4512 54.2532 77.4296C53.4376 77.4079 52.6448 77.6998 52.038 78.2452L49.0916 81.1936C48.4961 81.7911 48.1617 82.6002 48.1617 83.4438C48.1617 84.2873 48.4961 85.0965 49.0916 85.694Z" fill="#DEE1EC"/>
<path d="M76.8786 75.9741C76.2811 76.5702 75.4715 76.905 74.6274 76.905C73.7834 76.905 72.9738 76.5702 72.3763 75.9741L71.1969 74.7947C71.5228 75.0828 71.7863 75.4346 71.9711 75.8284C72.156 76.2222 72.2583 76.6497 72.2717 77.0845C72.2851 77.5193 72.2094 77.9523 72.0491 78.3567C71.8889 78.7612 71.6476 79.1285 71.3401 79.4362C71.0325 79.7439 70.6653 79.9853 70.2609 80.1457C69.8565 80.3061 69.4236 80.3821 68.9888 80.3688C68.554 80.3556 68.1265 80.2535 67.7326 80.0689C67.3387 79.8842 66.9868 79.6209 66.6985 79.2951L65.6327 78.2292C66.1821 78.8356 66.4773 79.63 66.4571 80.448C66.437 81.2659 66.1031 82.0448 65.5245 82.6234C64.9459 83.202 64.167 83.5359 63.3491 83.556C62.5311 83.5762 61.7367 83.281 61.1304 82.7316L59.5944 81.1916C59.9165 81.4809 60.1764 81.8327 60.3581 82.2257C60.5398 82.6187 60.6395 83.0446 60.6512 83.4774C60.6629 83.9102 60.5863 84.3408 60.426 84.743C60.2658 85.1452 60.0253 85.5106 59.7192 85.8168C59.4132 86.123 59.0479 86.3636 58.6458 86.524C58.2436 86.6844 57.813 86.7612 57.3802 86.7498C56.9474 86.7383 56.5215 86.6387 56.1285 86.4572C55.7354 86.2757 55.3834 86.016 55.094 85.694L54.343 84.9429L56.5344 82.7515C57.0757 82.144 57.3642 81.3526 57.3408 80.5392C57.3174 79.7259 56.9839 78.9523 56.4085 78.377C55.8332 77.8017 55.0596 77.4681 54.2463 77.4447C53.433 77.4213 52.6415 77.7098 52.034 78.2512C51.1156 79.1696 51.2152 79.0819 51.1893 79.068C52.8747 76.9762 51.3527 73.8883 48.7091 73.8883C47.8648 73.8887 47.0552 74.224 46.4579 74.8206C45.2307 76.0498 45.3303 75.9681 45.2985 75.9502C45.7833 75.3109 46.0092 74.5122 45.9311 73.7136C45.853 72.915 45.4765 72.1753 44.8769 71.6421C44.2773 71.1089 43.4987 70.8214 42.6964 70.8371C41.8942 70.8528 41.1274 71.1705 40.5491 71.7267L39.4275 72.8483C39.8517 72.3956 40.1346 71.8288 40.2414 71.2175C40.3483 70.6063 40.2743 69.9772 40.0288 69.4074C39.7832 68.8375 39.3766 68.3517 38.859 68.0096C38.3413 67.6675 37.735 67.4839 37.1145 67.4814H24.4124V46.1769H49.4283C51.4371 46.1774 53.3637 46.9749 54.7852 48.3942L46.9241 56.2554L47.8245 57.0941C48.9405 58.1312 50.4151 58.6953 51.9383 58.6678C53.4615 58.6403 54.9147 58.0234 55.9925 56.9467L59.1302 53.809L73.3604 68.0412C73.7011 68.2783 73.452 68.0571 76.8627 71.4678C77.4621 72.0634 77.8005 72.8726 77.8035 73.7176C77.8065 74.5626 77.4738 75.3743 76.8786 75.9741Z" fill="#DEE1EC"/>
<path style="mix-blend-mode:multiply" d="M75.9024 70.4916C73.1238 70.4913 70.4589 69.3878 68.4935 67.4236L59.1481 58.0782L58.152 59.0843C56.5213 60.7155 54.3211 61.6502 52.0149 61.6914C49.7087 61.7327 47.4766 60.8773 45.7885 59.3054L42.601 56.3371L52.2293 46.7068C53.1873 47.0893 54.0571 47.6635 54.7852 48.3942L46.9221 56.2554L47.8245 57.0961C48.941 58.1325 50.4156 58.6959 51.9386 58.668C53.4617 58.6401 54.9147 58.0232 55.9925 56.9467L59.1282 53.809L73.3604 68.0412C73.711 68.2723 73.6194 68.2105 75.9024 70.4916Z" fill="url(#paint1_linear_12442_20242)"/>
<path d="M84.8673 68.0751H72.5556L59.1422 54.6597L56.4268 57.373C55.2418 58.5666 53.6382 59.2512 51.9566 59.2817C50.275 59.3122 48.6477 58.6862 47.4201 57.5364L46.0674 56.2753L54.3131 48.0297C55.0708 47.2698 55.9714 46.6674 56.9629 46.2571C57.9544 45.8468 59.0174 45.6368 60.0905 45.6391H84.8673V68.0751ZM73.0516 66.8798H83.672V46.8264H60.1044C59.1863 46.8238 58.2769 47.0035 57.4288 47.3551C56.5807 47.7066 55.8108 48.223 55.1638 48.8744L47.7927 56.2455L48.2389 56.6598C49.24 57.598 50.5674 58.1091 51.9392 58.0845C53.311 58.06 54.6192 57.5018 55.5861 56.5284L59.1462 52.9763L73.0516 66.8798Z" fill="#5E6175"/>
<path d="M34.0665 77.504C33.5696 77.5063 33.0772 77.4095 32.6182 77.2193C32.1592 77.0291 31.7426 76.7494 31.3929 76.3964C30.6849 75.6868 30.2873 74.7253 30.2873 73.7229C30.2873 72.7205 30.6849 71.759 31.3929 71.0494L34.4569 67.9874C34.8003 67.6043 35.2182 67.2952 35.6851 67.079C36.1519 66.8628 36.6579 66.7441 37.1722 66.73C37.6865 66.716 38.1982 66.8069 38.6762 66.9973C39.1541 67.1877 39.5883 67.4735 39.9521 67.8373C40.3158 68.2011 40.6017 68.6352 40.792 69.1132C40.9824 69.5911 41.0733 70.1029 41.0593 70.6171C41.0452 71.1314 40.9265 71.6374 40.7103 72.1043C40.4942 72.5711 40.1851 72.989 39.802 73.3324L36.74 76.3964C36.3896 76.7485 35.973 77.0277 35.5141 77.2178C35.0552 77.4079 34.5632 77.5052 34.0665 77.504ZM35.3016 68.8321L32.2297 71.902C30.606 73.5237 31.7655 76.3147 34.0565 76.3147C34.3962 76.3157 34.7328 76.2493 35.0467 76.1193C35.3606 75.9894 35.6457 75.7985 35.8853 75.5577L38.9473 72.4937C39.384 71.9997 39.6158 71.3578 39.5955 70.6988C39.5753 70.0398 39.3044 69.4134 38.8382 68.9472C38.372 68.481 37.7455 68.2101 37.0866 68.1898C36.4276 68.1696 35.7856 68.4014 35.2917 68.838L35.3016 68.8321Z" fill="#5E6175"/>
<path d="M39.7363 80.825C39.2397 80.8275 38.7476 80.7307 38.2888 80.5405C37.8301 80.3503 37.4139 80.0705 37.0648 79.7174C36.3567 79.0078 35.9591 78.0463 35.9591 77.0439C35.9591 76.0414 36.3567 75.08 37.0648 74.3703L40.1327 71.3024C40.4768 70.9214 40.8947 70.6144 41.3612 70.4C41.8276 70.1856 42.3328 70.0683 42.846 70.0553C43.3592 70.0423 43.8696 70.1338 44.3463 70.3243C44.8231 70.5147 45.256 70.8002 45.619 71.1632C45.9819 71.5263 46.2672 71.9594 46.4575 72.4362C46.6477 72.9129 46.7391 73.4234 46.7259 73.9366C46.7126 74.4498 46.5952 74.9549 46.3806 75.4213C46.1661 75.8876 45.8589 76.3055 45.4778 76.6494L42.4098 79.7174C42.0594 80.0695 41.6428 80.3486 41.1839 80.5388C40.725 80.7289 40.233 80.8262 39.7363 80.825ZM42.8062 71.392C42.4666 71.3915 42.1301 71.4581 41.8163 71.588C41.5024 71.7179 41.2173 71.9086 40.9774 72.149L37.9094 75.217C37.469 75.7104 37.234 76.3536 37.2527 77.0147C37.2713 77.6758 37.5422 78.3047 38.0097 78.7725C38.4772 79.2403 39.106 79.5115 39.7671 79.5305C40.4282 79.5495 41.0715 79.3148 41.5651 78.8747L44.6331 75.8067C44.9928 75.4444 45.2374 74.9839 45.3363 74.4831C45.4351 73.9822 45.3836 73.4633 45.1884 72.9916C44.9932 72.5198 44.6629 72.1163 44.2391 71.8317C43.8153 71.5471 43.3168 71.3942 42.8062 71.392Z" fill="#5E6175"/>
<path d="M45.3044 84.2536C44.8083 84.2567 44.3165 84.1609 43.8578 83.9717C43.3991 83.7825 42.9827 83.5038 42.6329 83.1519C41.9255 82.4424 41.5283 81.4813 41.5283 80.4794C41.5283 79.4774 41.9255 78.5164 42.6329 77.8069L46.0435 74.3962C46.7645 73.7501 47.7056 73.4047 48.6733 73.4311C49.6411 73.4575 50.5619 73.8538 51.2465 74.5383C51.931 75.2229 52.3273 76.1437 52.3537 77.1115C52.3801 78.0793 52.0348 79.0204 51.3886 79.7413L47.978 83.1519C47.6274 83.5034 47.2106 83.7817 46.7517 83.9708C46.2927 84.16 45.8008 84.2561 45.3044 84.2536ZM48.7151 74.4919C48.3753 74.4909 48.0388 74.5573 47.7249 74.6872C47.4109 74.8172 47.1259 75.0081 46.8862 75.2489L43.4756 78.6595C43.039 79.1535 42.8071 79.7954 42.8274 80.4544C42.8477 81.1134 43.1185 81.7399 43.5847 82.2061C44.0509 82.6723 44.6774 82.9431 45.3364 82.9634C45.9954 82.9837 46.6373 82.7518 47.1313 82.3152L50.5419 78.9046C52.1835 77.255 50.9882 74.4919 48.7151 74.4919Z" fill="#5E6175"/>
<path d="M51.3408 87.2239C50.8442 87.2264 50.3521 87.1297 49.8933 86.9395C49.4346 86.7492 49.0184 86.4694 48.6692 86.1163C47.9618 85.4067 47.5646 84.4457 47.5646 83.4438C47.5646 82.4418 47.9618 81.4808 48.6692 80.7712L51.6157 77.8228C51.9603 77.4439 52.3782 77.139 52.8441 76.9263C53.31 76.7137 53.8142 76.5978 54.3262 76.5857C54.8382 76.5735 55.3474 76.6655 55.8228 76.8558C56.2983 77.0462 56.7301 77.3311 57.0923 77.6932C57.4544 78.0554 57.7393 78.4872 57.9297 78.9627C58.1201 79.4381 58.212 79.9473 58.1999 80.4593C58.1877 80.9713 58.0719 81.4755 57.8592 81.9414C57.6466 82.4073 57.3416 82.8252 56.9627 83.1698L54.0143 86.1163C53.6643 86.4688 53.2477 86.7483 52.7887 86.9384C52.3297 87.1286 51.8376 87.2256 51.3408 87.2239ZM54.2892 77.9105C53.9495 77.9096 53.6129 77.9761 53.299 78.106C52.9851 78.2359 52.7001 78.4268 52.4604 78.6675L49.5139 81.6159C49.0773 82.1099 48.8454 82.7518 48.8657 83.4108C48.886 84.0698 49.1568 84.6963 49.623 85.1625C50.0892 85.6287 50.7157 85.8995 51.3747 85.9198C52.0337 85.9401 52.6756 85.7082 53.1696 85.2716L56.118 82.3231C57.7576 80.6836 56.5643 77.9105 54.2892 77.9105Z" fill="#5E6175"/>
<path d="M57.3432 87.224C56.8467 87.2256 56.3549 87.1286 55.8962 86.9384C55.4376 86.7482 55.0213 86.4688 54.6717 86.1163L53.4983 84.9429L56.116 82.3232C56.3573 82.0842 56.5487 81.7996 56.679 81.486C56.8093 81.1724 56.8759 80.836 56.875 80.4964C56.875 78.1854 54.076 77.0558 52.4624 78.6675L51.3188 79.813L50.2829 79.2413L50.7292 78.6874C51.1191 78.1693 51.3004 77.5237 51.2373 76.8782C51.1742 76.2328 50.8712 75.6346 50.3883 75.2017C49.9054 74.7689 49.2777 74.533 48.6292 74.5406C47.9808 74.5482 47.3588 74.7989 46.8862 75.243L45.4399 76.6833L44.382 76.1454L44.8343 75.5717C45.2242 75.0519 45.4046 74.4045 45.3395 73.7579C45.2744 73.1114 44.9686 72.513 44.4828 72.0814C43.997 71.6498 43.3668 71.4165 42.7171 71.428C42.0673 71.4394 41.4457 71.6947 40.9754 72.1431L39.8558 73.2627L38.9991 72.43C39.3433 72.0621 39.5726 71.6018 39.6591 71.1055C39.7456 70.6092 39.6854 70.0985 39.4861 69.6359C39.2867 69.1732 38.9567 68.7788 38.5365 68.5009C38.1164 68.2229 37.6243 68.0736 37.1205 68.0711H23.8147V45.5793H49.4283C50.5031 45.5753 51.568 45.7846 52.5613 46.1949C53.5547 46.6053 54.4569 47.2086 55.2156 47.9699L55.6379 48.3922L47.7927 56.2435L48.2389 56.6618C49.2401 57.6002 50.5677 58.1113 51.9396 58.0863C53.3116 58.0614 54.6197 57.5025 55.5861 56.5283L59.1461 52.9763L73.7608 67.5949C74.1593 67.8818 74.0915 67.848 77.3009 71.0574C77.9471 71.7085 78.3348 72.5721 78.392 73.4877C78.4491 74.4032 78.1719 75.3084 77.6118 76.0348C77.0516 76.7613 76.2467 77.2596 75.3468 77.4371C74.4468 77.6147 73.513 77.4594 72.7189 77.0001C72.7271 77.6576 72.5638 78.306 72.2451 78.8812C71.9264 79.4565 71.4633 79.9388 70.9015 80.2806C70.3397 80.6224 69.6986 80.812 69.0412 80.8306C68.3839 80.8492 67.733 80.6963 67.1527 80.3868C67.2344 83.5643 63.6166 85.3852 61.1164 83.5225C61.0946 84.5097 60.6878 85.4494 59.9829 86.1409C59.278 86.8324 58.3307 87.2211 57.3432 87.224ZM55.1837 84.9429L55.5124 85.2716C55.7518 85.5123 56.0364 85.7031 56.35 85.833C56.6636 85.963 56.9998 86.0295 57.3392 86.0287C59.6522 86.0287 60.7797 83.2396 59.1661 81.614L60.0127 80.7693C60.0267 80.7892 59.8474 80.6059 61.5487 82.3092C62.0417 82.7535 62.6864 82.9916 63.3497 82.9743C64.0131 82.9571 64.6446 82.6859 65.1138 82.2167C65.583 81.7474 65.8543 81.116 65.8715 80.4526C65.8887 79.7892 65.6506 79.1445 65.2064 78.6516L66.0511 77.8069L67.1169 78.8727C67.3506 79.1392 67.6365 79.3549 67.9569 79.5065C68.2773 79.658 68.6254 79.7422 68.9797 79.7537C69.3339 79.7653 69.6868 79.704 70.0164 79.5737C70.346 79.4433 70.6454 79.2467 70.8959 78.996C71.1465 78.7453 71.3429 78.4459 71.4731 78.1162C71.6032 77.7865 71.6643 77.4336 71.6526 77.0794C71.6408 76.7251 71.5565 76.377 71.4048 76.0567C71.253 75.7364 71.0372 75.4506 70.7706 75.2171L71.6152 74.3724C71.7188 74.468 71.2168 73.9739 72.7946 75.5517C73.2879 75.9892 73.9294 76.2221 74.5885 76.2029C75.2475 76.1837 75.8744 75.9139 76.3414 75.4485C76.8083 74.983 77.0802 74.357 77.1016 73.698C77.1229 73.039 76.8921 72.3967 76.4563 71.9021C72.438 67.8858 73.5497 68.9755 72.954 68.4755L59.1461 54.6676L56.4308 57.381C55.2466 58.5753 53.6432 59.2606 51.9616 59.2911C50.28 59.3216 48.6528 58.6949 47.4261 57.5444L46.0714 56.2833L53.9306 48.4241C52.6727 47.3591 51.0765 46.7772 49.4283 46.7826H25.01V66.8817H37.1205C37.6208 66.8817 38.1161 66.9809 38.5778 67.1734C39.0396 67.366 39.4585 67.6482 39.8105 68.0037C40.1625 68.3592 40.4405 68.781 40.6285 69.2446C40.8165 69.7082 40.9107 70.2045 40.9057 70.7047C41.4783 70.3741 42.1274 70.1992 42.7886 70.1975C43.4498 70.1958 44.0999 70.3673 44.6742 70.695C45.2485 71.0226 45.7269 71.495 46.0619 72.065C46.3969 72.6351 46.5767 73.2829 46.5834 73.944C49.1115 72.2148 52.5739 74.0935 52.4942 77.1674C53.2929 76.746 54.2159 76.624 55.0966 76.8234C55.9774 77.0229 56.7578 77.5306 57.297 78.255C57.8362 78.9794 58.0987 79.8727 58.037 80.7736C57.9753 81.6745 57.5936 82.5237 56.9607 83.1679L55.1837 84.9429Z" fill="#5E6175"/>
<path d="M26.1678 43.1866H22.6569C20.4478 43.1866 18.6569 44.9775 18.6569 47.1866V65.8441C18.6569 68.0532 20.4478 69.8441 22.6569 69.8441H26.1678C28.3769 69.8441 30.1678 68.0532 30.1678 65.8441V47.1866C30.1678 44.9775 28.3769 43.1866 26.1678 43.1866Z" fill="white"/>
<path d="M87.9674 43.1866H84.4565C82.2474 43.1866 80.4565 44.9775 80.4565 47.1866V65.8441C80.4565 68.0532 82.2474 69.8441 84.4565 69.8441H87.9674C90.1765 69.8441 91.9674 68.0532 91.9674 65.8441V47.1866C91.9674 44.9775 90.1765 43.1866 87.9674 43.1866Z" fill="white"/>
<path d="M24.5797 52.2292C25.658 52.2292 26.5321 51.3551 26.5321 50.2769C26.5321 49.1986 25.658 48.3245 24.5797 48.3245C23.5015 48.3245 22.6274 49.1986 22.6274 50.2769C22.6274 51.3551 23.5015 52.2292 24.5797 52.2292Z" fill="#1C1C1E"/>
<path d="M86.212 66.0231C87.2902 66.0231 88.1643 65.149 88.1643 64.0708C88.1643 62.9925 87.2902 62.1184 86.212 62.1184C85.1337 62.1184 84.2596 62.9925 84.2596 64.0708C84.2596 65.149 85.1337 66.0231 86.212 66.0231Z" fill="#1C1C1E"/>
<path d="M54.4326 40.4852C61.2663 40.4852 66.8061 34.9454 66.8061 28.1118C66.8061 21.2781 61.2663 15.7383 54.4326 15.7383C47.5989 15.7383 42.0591 21.2781 42.0591 28.1118C42.0591 34.9454 47.5989 40.4852 54.4326 40.4852Z" fill="#F5F5F5"/>
<path d="M54.4326 41.0829C51.8671 41.0833 49.359 40.3229 47.2257 38.8978C45.0923 37.4728 43.4295 35.4471 42.4474 33.077C41.4654 30.7069 41.2082 28.0987 41.7085 25.5824C42.2087 23.0662 43.444 20.7547 45.2579 18.9405C47.0719 17.1262 49.3831 15.8907 51.8993 15.39C54.4155 14.8894 57.0237 15.1461 59.394 16.1278C61.7643 17.1095 63.7902 18.772 65.2156 20.9052C66.6409 23.0383 67.4017 25.5462 67.4017 28.1118C67.3975 31.5503 66.0298 34.8468 63.5986 37.2784C61.1674 39.71 57.8711 41.0781 54.4326 41.0829ZM54.4326 16.3379C52.1034 16.3375 49.8264 17.0279 47.8896 18.3217C45.9527 19.6155 44.4431 21.4546 43.5516 23.6064C42.66 25.7583 42.4267 28.1261 42.881 30.4106C43.3353 32.6951 44.4568 34.7935 46.1038 36.4405C47.7508 38.0875 49.8493 39.2091 52.1337 39.6634C54.4182 40.1177 56.7861 39.8843 58.9379 38.9928C61.0898 38.1013 62.9289 36.5916 64.2227 34.6548C65.5165 32.718 66.2068 30.441 66.2064 28.1118C66.2027 24.9903 64.9611 21.9977 62.7539 19.7905C60.5467 17.5833 57.5541 16.3416 54.4326 16.3379Z" fill="#5E6175"/>
<path d="M52.5181 34.9469L47.1851 29.6139L49.0199 27.7771L52.5181 31.2753L60.3913 23.4022L62.2281 25.237L52.5181 34.9469Z" fill="#20B37C"/>
<path d="M74.9701 26.8089H71.2128V28.0042H74.9701V26.8089Z" fill="white"/>
<path d="M72.6482 20.7455L69.9915 23.4023L70.8367 24.2475L73.4935 21.5907L72.6482 20.7455Z" fill="white"/>
<path d="M71.069 30.4777L70.2238 31.3229L72.8806 33.9797L73.7258 33.1345L71.069 30.4777Z" fill="white"/>
<path d="M37.1086 26.7212H33.3513V27.9165H37.1086V26.7212Z" fill="white"/>
<path d="M37.4832 30.4752L34.8269 33.1324L35.6723 33.9775L38.3286 31.3203L37.4832 30.4752Z" fill="white"/>
<path d="M35.4397 20.7452L34.5945 21.5905L37.2513 24.2472L38.0965 23.402L35.4397 20.7452Z" fill="white"/>
<path d="M27.9026 86.1754C27.6601 85.8831 27.4935 85.5354 27.4176 85.1633C27.3416 84.7911 27.3586 84.406 27.4671 84.042C27.5756 83.678 27.7722 83.3464 28.0394 83.0766C28.3067 82.8067 28.6364 82.607 28.9994 82.4951C29.3623 82.3831 29.7473 82.3625 30.1201 82.4349C30.493 82.5073 30.8422 82.6706 31.1368 82.9102C31.4315 83.1499 31.6624 83.4586 31.8093 83.8088C31.9561 84.1591 32.0143 84.5402 31.9786 84.9183C31.9348 85.3723 31.7577 85.8031 31.4696 86.1566C31.1814 86.5101 30.7952 86.7704 30.3594 86.9048C29.9236 87.0392 29.4578 87.0417 29.0206 86.9119C28.5834 86.7821 28.1944 86.5258 27.9026 86.1754ZM29.6776 83.5856C29.462 83.5861 29.2512 83.6493 29.0708 83.7674C28.8903 83.8855 28.7481 84.0534 28.6613 84.2508C28.5744 84.4482 28.5468 84.6665 28.5817 84.8793C28.6165 85.0921 28.7124 85.2902 28.8577 85.4495C29.003 85.6088 29.1914 85.7226 29.4001 85.7769C29.6087 85.8312 29.8287 85.8238 30.0332 85.7555C30.2378 85.6873 30.4181 85.5611 30.5523 85.3923C30.6865 85.2235 30.7688 85.0194 30.7893 84.8048C30.8033 84.6508 30.7853 84.4956 30.7362 84.349C30.6871 84.2023 30.608 84.0675 30.5041 83.9531C30.4001 83.8386 30.2735 83.747 30.1322 83.6841C29.991 83.6212 29.8382 83.5883 29.6836 83.5876L29.6776 83.5856Z" fill="white"/>
<path d="M19.1409 79.0573C18.9517 78.8286 18.8218 78.5569 18.7627 78.266C18.7036 77.9752 18.7171 77.6743 18.802 77.3899C18.887 77.1055 19.0407 76.8465 19.2497 76.6357C19.4586 76.425 19.7163 76.269 19.9999 76.1816C20.2836 76.0942 20.5844 76.0781 20.8757 76.1347C21.167 76.1913 21.4399 76.3189 21.6702 76.5061C21.9004 76.6934 22.081 76.9345 22.1958 77.2082C22.3106 77.4819 22.3562 77.7796 22.3284 78.0751C22.2942 78.4301 22.1556 78.767 21.9303 79.0434C21.7049 79.3198 21.4028 79.5233 21.062 79.6283C20.7211 79.7333 20.3569 79.7351 20.015 79.6335C19.6732 79.5319 19.3691 79.3314 19.1409 79.0573ZM20.5355 77.2962C20.4169 77.2944 20.3004 77.3272 20.2002 77.3906C20.0999 77.454 20.0204 77.5452 19.9713 77.6531C19.9221 77.7611 19.9055 77.881 19.9235 77.9982C19.9415 78.1154 19.9933 78.2249 20.0726 78.3131C20.1518 78.4013 20.2551 78.4645 20.3697 78.4949C20.4843 78.5253 20.6053 78.5217 20.7179 78.4844C20.8304 78.4471 20.9297 78.3777 21.0034 78.2849C21.0772 78.192 21.1223 78.0797 21.1331 77.9616C21.1409 77.8776 21.1311 77.793 21.1044 77.713C21.0778 77.633 21.0348 77.5594 20.9783 77.4969C20.9217 77.4344 20.8528 77.3843 20.7759 77.3497C20.699 77.3152 20.6158 77.2969 20.5315 77.2962H20.5355Z" fill="white"/>
<path d="M24.9203 37.0985C24.5197 37.0981 24.1282 36.9789 23.7952 36.7561C23.4623 36.5332 23.2029 36.2166 23.0499 35.8464C22.8969 35.4762 22.857 35.0688 22.9354 34.676C23.0138 34.2831 23.2069 33.9223 23.4904 33.6391C23.7738 33.356 24.1348 33.1632 24.5278 33.0852C24.9207 33.0072 25.328 33.0474 25.6981 33.2008C26.0682 33.3542 26.3845 33.6139 26.607 33.947C26.8296 34.2802 26.9484 34.6718 26.9484 35.0724C26.9478 35.61 26.7339 36.1253 26.3536 36.5052C25.9734 36.8851 25.4578 37.0985 24.9203 37.0985ZM24.9203 34.2417C24.7561 34.2421 24.5957 34.2911 24.4593 34.3827C24.323 34.4742 24.2168 34.6041 24.1542 34.7559C24.0916 34.9077 24.0755 35.0747 24.1078 35.2357C24.14 35.3967 24.2193 35.5446 24.3356 35.6606C24.4518 35.7765 24.5999 35.8555 24.761 35.8874C24.9221 35.9193 25.089 35.9027 25.2407 35.8398C25.3923 35.7768 25.522 35.6703 25.6132 35.5338C25.7044 35.3972 25.753 35.2367 25.753 35.0724C25.7509 34.8532 25.6622 34.6436 25.5062 34.4895C25.3502 34.3353 25.1396 34.2491 24.9203 34.2497V34.2417Z" fill="white"/>
<defs>
<linearGradient id="paint0_linear_12442_20242" x1="42.5911" y1="58.6002" x2="75.8984" y2="58.6002" gradientUnits="userSpaceOnUse">
<stop stop-color="#CACFDD"/>
<stop offset="1" stop-color="#EEF0F1"/>
</linearGradient>
<linearGradient id="paint1_linear_12442_20242" x1="42.5911" y1="58.6002" x2="75.8984" y2="58.6002" gradientUnits="userSpaceOnUse">
<stop stop-color="#CACFDD"/>
<stop offset="1" stop-color="#EEF0F1"/>
</linearGradient>
</defs>
</svg>
