<svg width="102" height="102" viewBox="0 0 102 102" fill="none" xmlns="http://www.w3.org/2000/svg">
<path d="M57.6738 36.2798H53.8627V26.2192C53.9169 25.0094 53.7254 23.8012 53.2997 22.6674C52.874 21.5337 52.2231 20.4979 51.3861 19.6226C50.5492 18.7474 49.5435 18.0508 48.43 17.5748C47.3164 17.0989 46.1179 16.8536 44.9069 16.8536C43.6958 16.8536 42.4974 17.0989 41.3838 17.5748C40.2702 18.0508 39.2646 18.7474 38.4276 19.6226C37.5906 20.4979 36.9397 21.5337 36.514 22.6674C36.0884 23.8012 35.8968 25.0094 35.951 26.2192V36.2798H32.1379V26.2192C32.1379 24.5425 32.4682 22.8822 33.1098 21.3331C33.7515 19.7841 34.692 18.3765 35.8776 17.1909C37.0632 16.0053 38.4707 15.0648 40.0198 14.4232C41.5689 13.7815 43.2292 13.4513 44.9059 13.4513C46.5826 13.4513 48.2429 13.7815 49.7919 14.4232C51.341 15.0648 52.7485 16.0053 53.9342 17.1909C55.1198 18.3765 56.0602 19.7841 56.7019 21.3331C57.3435 22.8822 57.6738 24.5425 57.6738 26.2192V36.2798Z" fill="white"/>
<path d="M16.5969 30.4885L11.5188 88.5488H56.604L61.6841 30.4885H16.5969Z" fill="#DEE1EC"/>
<path d="M57.1519 89.1464H10.8654L16.0491 29.8828H62.3356L57.1519 89.1464ZM12.1703 87.9511H56.0562L61.0367 31.0861H17.1448L12.1703 87.9511Z" fill="#5E6175"/>
<path d="M73.4858 88.5488H56.604L61.6841 30.4865H68.4057L73.4858 88.5488Z" fill="#DEE1EC"/>
<path style="mix-blend-mode:multiply" d="M73.4858 88.5488H56.604L61.6841 30.4865H68.4057L73.4858 88.5488Z" fill="url(#paint0_linear_12442_20238)"/>
<path d="M74.1492 89.1465H55.9406L56.2454 86.2478L65.0389 80.606L73.8245 86.0626L74.1492 89.1465ZM57.2674 87.9512H72.8224L72.6969 86.7698L65.0509 82.0204L57.375 86.9451L57.2674 87.9512Z" fill="#5E6175"/>
<path d="M65.6426 30.4885H64.4473V81.3132H65.6426V30.4885Z" fill="#5E6175"/>
<path style="mix-blend-mode:multiply" d="M52.7531 21.9141C52.0306 20.5998 50.9895 19.488 49.7254 18.6809C48.4613 17.8738 47.0147 17.3972 45.5184 17.2949C44.022 17.1925 42.524 17.4678 41.1618 18.0953C39.7995 18.7227 38.6168 19.6824 37.7221 20.8861C36.7098 20.7456 35.6784 20.8965 34.7488 21.3209C33.8191 21.7453 33.0296 22.4258 32.4727 23.2827C33.2413 20.0501 35.2386 17.2438 38.0411 15.4587C40.8437 13.6736 44.2313 13.0501 47.4858 13.7202C50.034 15.8523 51.8715 18.7107 52.7531 21.9141Z" fill="url(#paint1_linear_12442_20238)"/>
<path d="M49.7668 36.2798H45.9558V26.2192C46.0099 25.0094 45.8184 23.8012 45.3927 22.6674C44.9671 21.5337 44.3161 20.4979 43.4791 19.6226C42.6422 18.7474 41.6366 18.0508 40.523 17.5748C39.4094 17.0989 38.2109 16.8536 36.9999 16.8536C35.7889 16.8536 34.5904 17.0989 33.4768 17.5748C32.3632 18.0508 31.3576 18.7474 30.5206 19.6226C29.6837 20.4979 29.0327 21.5337 28.607 22.6674C28.1814 23.8012 27.9899 25.0094 28.044 26.2192V36.2798H24.231V26.2192C24.231 22.833 25.5761 19.5854 27.9706 17.1909C30.365 14.7965 33.6126 13.4513 36.9989 13.4513C40.3852 13.4513 43.6327 14.7965 46.0272 17.1909C48.4216 19.5854 49.7668 22.833 49.7668 26.2192V36.2798Z" fill="white"/>
<path style="mix-blend-mode:multiply" d="M58.4149 40.1128H60.8414L56.604 88.5488H49.5079V40.1128H54.3549L56.3849 42.3799L58.4149 40.1128Z" fill="url(#paint2_linear_12442_20238)"/>
<path style="mix-blend-mode:multiply" d="M56.606 88.5488L60.8414 40.1128H61.6184L63.6464 42.3779L65.6764 40.1128H68.8799L69.2883 40.567L73.4858 88.5488H56.606Z" fill="url(#paint3_linear_12442_20238)"/>
<path d="M74.1373 89.1464H55.9526L61.1323 29.8888H68.9496L74.1373 89.1464ZM57.2575 87.9511H72.8324L67.8579 31.0781H62.232L57.2575 87.9511Z" fill="#5E6175"/>
<path d="M89.5209 43.358V88.5488H81.8072V43.358H81.9686L85.6641 47.2428L89.3576 43.358H89.5209Z" fill="white"/>
<path style="mix-blend-mode:multiply" d="M89.5209 43.358V88.5488H81.8072V43.358H81.9686L85.6641 47.2428L89.3576 43.358H89.5209Z" fill="url(#paint4_linear_12442_20238)"/>
<path d="M90.1186 89.1464H81.2115V86.8474L85.6641 82.3013L90.1266 86.708L90.1186 89.1464ZM82.4069 87.9511H88.9233V87.206L85.6641 83.9946L82.3989 87.3355L82.4069 87.9511Z" fill="#5E6175"/>
<path d="M86.2617 47.2428H85.0664V83.148H86.2617V47.2428Z" fill="#5E6175"/>
<path d="M81.8072 43.358V88.5488H52.7531V43.358H52.9045L56.3849 47.2428L59.8632 43.358H60.168L63.6464 47.2428L67.1267 43.358H67.4316L70.9119 47.2428L74.3903 43.358H74.6951L78.1774 47.2428L81.6558 43.358H81.8072Z" fill="white"/>
<path d="M82.4048 89.1465H52.1555V42.7604H53.1715L56.3849 46.3463L59.5963 42.7604H60.435L63.6464 46.3463L66.8598 42.7604H67.6985L70.9119 46.3463L74.1233 42.7604H74.962L78.1754 46.3463L81.3888 42.7604H82.4048V89.1465ZM53.3508 87.9512H81.2095V44.7506L78.1774 48.1373L74.5437 44.0832L70.9219 48.1373L67.2881 44.0832L63.6564 48.1393L60.0266 44.0832L56.3789 48.1393L53.3448 44.7526L53.3508 87.9512Z" fill="#5E6175"/>
<path d="M90.1186 89.1465H81.2095V42.7604H82.2255L85.6641 46.3762L89.1006 42.7604H90.1186V89.1465ZM82.4048 87.9512H88.9233V44.6828L85.6641 48.1094L82.4048 44.6828V87.9512Z" fill="#5E6175"/>
<path d="M94.1966 87.9512H7.17188V89.1465H94.1966V87.9512Z" fill="#5E6175"/>
<path d="M73.4591 24.5113L70.6361 27.3344L71.4813 28.1796L74.3043 25.3565L73.4591 24.5113Z" fill="white"/>
<path d="M77.1435 30.4507H73.1511V31.646H77.1435V30.4507Z" fill="white"/>
<path d="M68.6069 21.5654H67.4116V25.5578H68.6069V21.5654Z" fill="white"/>
<path d="M87.1004 32.6859C88.1251 32.6859 89.1078 33.0928 89.8326 33.8172C90.5573 34.5415 90.9647 35.5241 90.9652 36.5487C90.9652 35.5242 91.3722 34.5417 92.0966 33.8173C92.8211 33.0929 93.8036 32.6859 94.8281 32.6859C94.3207 32.6859 93.8182 32.5859 93.3494 32.3917C92.8806 32.1974 92.4547 31.9127 92.096 31.5538C91.7372 31.1949 91.4527 30.7688 91.2587 30.2999C91.0647 29.831 90.965 29.3285 90.9652 28.821C90.9652 29.3286 90.8653 29.8312 90.6711 30.3001C90.4768 30.769 90.1921 31.195 89.8333 31.5539C89.4744 31.9128 89.0483 32.1975 88.5794 32.3917C88.1105 32.5859 87.6079 32.6859 87.1004 32.6859Z" fill="white"/>
<defs>
<linearGradient id="paint0_linear_12442_20238" x1="56.604" y1="59.5186" x2="73.4858" y2="59.5186" gradientUnits="userSpaceOnUse">
<stop stop-color="#CACFDD"/>
<stop offset="1" stop-color="#EEF0F1"/>
</linearGradient>
<linearGradient id="paint1_linear_12442_20238" x1="42.6169" y1="11.4452" x2="42.6169" y2="31.5244" gradientUnits="userSpaceOnUse">
<stop stop-color="#CACFDD"/>
<stop offset="1" stop-color="#EEF0F1"/>
</linearGradient>
<linearGradient id="paint2_linear_12442_20238" x1="49.5079" y1="64.3318" x2="60.8414" y2="64.3318" gradientUnits="userSpaceOnUse">
<stop stop-color="#CACFDD"/>
<stop offset="1" stop-color="#EEF0F1"/>
</linearGradient>
<linearGradient id="paint3_linear_12442_20238" x1="56.606" y1="64.3318" x2="73.4858" y2="64.3318" gradientUnits="userSpaceOnUse">
<stop stop-color="#CACFDD"/>
<stop offset="1" stop-color="#EEF0F1"/>
</linearGradient>
<linearGradient id="paint4_linear_12442_20238" x1="81.8072" y1="65.9534" x2="89.5209" y2="65.9534" gradientUnits="userSpaceOnUse">
<stop stop-color="#CACFDD"/>
<stop offset="1" stop-color="#EEF0F1"/>
</linearGradient>
</defs>
</svg>
