<svg width="269" height="311" viewBox="0 0 269 311" fill="none" xmlns="http://www.w3.org/2000/svg">
<g filter="url(#filter0_d_12442_20291)">
<rect x="80" y="60" width="169" height="151" rx="24" fill="#E32F32"/>
</g>
<path d="M183.184 194.8C183.392 194.8 183.586 194.86 183.766 194.98C183.95 195.1 184.098 195.262 184.21 195.466C184.322 195.67 184.378 195.898 184.378 196.15C184.378 196.398 184.322 196.624 184.21 196.828C184.098 197.032 183.95 197.196 183.766 197.32C183.586 197.44 183.392 197.5 183.184 197.5H182.08L182.14 197.392V198.634C182.14 198.738 182.108 198.826 182.044 198.898C181.98 198.966 181.896 199 181.792 199C181.692 199 181.61 198.966 181.546 198.898C181.482 198.826 181.45 198.738 181.45 198.634V195.166C181.45 195.062 181.484 194.976 181.552 194.908C181.624 194.836 181.712 194.8 181.816 194.8H183.184ZM183.184 196.816C183.26 196.816 183.334 196.784 183.406 196.72C183.478 196.656 183.538 196.574 183.586 196.474C183.634 196.37 183.658 196.262 183.658 196.15C183.658 196.034 183.634 195.926 183.586 195.826C183.538 195.726 183.478 195.646 183.406 195.586C183.334 195.522 183.26 195.49 183.184 195.49H182.068L182.14 195.382V196.912L182.074 196.816H183.184ZM188.061 197.398C188.061 197.726 187.987 198.016 187.839 198.268C187.695 198.516 187.499 198.71 187.251 198.85C187.007 198.99 186.733 199.06 186.429 199.06C186.125 199.06 185.849 198.99 185.601 198.85C185.357 198.71 185.161 198.516 185.013 198.268C184.869 198.016 184.797 197.726 184.797 197.398C184.797 197.07 184.869 196.782 185.013 196.534C185.161 196.282 185.357 196.086 185.601 195.946C185.849 195.802 186.125 195.73 186.429 195.73C186.733 195.73 187.007 195.802 187.251 195.946C187.499 196.086 187.695 196.282 187.839 196.534C187.987 196.782 188.061 197.07 188.061 197.398ZM187.341 197.398C187.341 197.194 187.299 197.018 187.215 196.87C187.135 196.718 187.025 196.6 186.885 196.516C186.749 196.432 186.597 196.39 186.429 196.39C186.261 196.39 186.107 196.432 185.967 196.516C185.831 196.6 185.721 196.718 185.637 196.87C185.557 197.018 185.517 197.194 185.517 197.398C185.517 197.598 185.557 197.774 185.637 197.926C185.721 198.074 185.831 198.19 185.967 198.274C186.107 198.358 186.261 198.4 186.429 198.4C186.597 198.4 186.749 198.358 186.885 198.274C187.025 198.19 187.135 198.074 187.215 197.926C187.299 197.774 187.341 197.598 187.341 197.398ZM192.387 195.79C192.479 195.79 192.559 195.826 192.627 195.898C192.695 195.966 192.729 196.054 192.729 196.162C192.729 196.19 192.727 196.216 192.723 196.24C192.719 196.26 192.713 196.28 192.705 196.3L191.787 198.772C191.759 198.852 191.709 198.914 191.637 198.958C191.565 198.998 191.489 199.012 191.409 199C191.273 198.992 191.171 198.916 191.103 198.772L190.509 197.062L190.665 197.068L190.107 198.772C190.039 198.916 189.937 198.992 189.801 199C189.725 199.012 189.649 198.998 189.573 198.958C189.501 198.914 189.451 198.852 189.423 198.772L188.505 196.3C188.489 196.256 188.481 196.21 188.481 196.162C188.481 196.066 188.513 195.98 188.577 195.904C188.641 195.828 188.729 195.79 188.841 195.79C188.917 195.79 188.985 195.808 189.045 195.844C189.105 195.88 189.147 195.938 189.171 196.018L189.897 197.986L189.747 197.974L190.293 196.492C190.357 196.344 190.467 196.27 190.623 196.27C190.711 196.27 190.777 196.29 190.821 196.33C190.869 196.366 190.907 196.42 190.935 196.492L191.481 197.974L191.301 197.998L192.039 196.018C192.087 195.866 192.203 195.79 192.387 195.79ZM194.808 199.06C194.468 199.06 194.172 198.99 193.92 198.85C193.672 198.706 193.48 198.512 193.344 198.268C193.212 198.024 193.146 197.748 193.146 197.44C193.146 197.08 193.218 196.774 193.362 196.522C193.51 196.266 193.702 196.07 193.938 195.934C194.174 195.798 194.424 195.73 194.688 195.73C194.892 195.73 195.084 195.772 195.264 195.856C195.448 195.94 195.61 196.056 195.75 196.204C195.89 196.348 196 196.516 196.08 196.708C196.164 196.9 196.206 197.104 196.206 197.32C196.202 197.416 196.164 197.494 196.092 197.554C196.02 197.614 195.936 197.644 195.84 197.644H193.548L193.368 197.044H195.57L195.438 197.164V197.002C195.43 196.886 195.388 196.782 195.312 196.69C195.24 196.598 195.148 196.526 195.036 196.474C194.928 196.418 194.812 196.39 194.688 196.39C194.568 196.39 194.456 196.406 194.352 196.438C194.248 196.47 194.158 196.524 194.082 196.6C194.006 196.676 193.946 196.778 193.902 196.906C193.858 197.034 193.836 197.196 193.836 197.392C193.836 197.608 193.88 197.792 193.968 197.944C194.06 198.092 194.176 198.206 194.316 198.286C194.46 198.362 194.612 198.4 194.772 198.4C194.92 198.4 195.038 198.388 195.126 198.364C195.214 198.34 195.284 198.312 195.336 198.28C195.392 198.244 195.442 198.214 195.486 198.19C195.558 198.154 195.626 198.136 195.69 198.136C195.778 198.136 195.85 198.166 195.906 198.226C195.966 198.286 195.996 198.356 195.996 198.436C195.996 198.544 195.94 198.642 195.828 198.73C195.724 198.818 195.578 198.896 195.39 198.964C195.202 199.028 195.008 199.06 194.808 199.06ZM197.195 199C197.091 199 197.005 198.966 196.937 198.898C196.869 198.826 196.835 198.738 196.835 198.634V196.156C196.835 196.052 196.869 195.966 196.937 195.898C197.005 195.826 197.091 195.79 197.195 195.79C197.299 195.79 197.385 195.826 197.453 195.898C197.521 195.966 197.555 196.052 197.555 196.156V196.72L197.513 196.318C197.557 196.222 197.613 196.138 197.681 196.066C197.753 195.99 197.833 195.928 197.921 195.88C198.009 195.828 198.103 195.79 198.203 195.766C198.303 195.742 198.403 195.73 198.503 195.73C198.623 195.73 198.723 195.764 198.803 195.832C198.887 195.9 198.929 195.98 198.929 196.072C198.929 196.204 198.895 196.3 198.827 196.36C198.759 196.416 198.685 196.444 198.605 196.444C198.529 196.444 198.459 196.43 198.395 196.402C198.335 196.374 198.265 196.36 198.185 196.36C198.113 196.36 198.039 196.378 197.963 196.414C197.891 196.446 197.823 196.498 197.759 196.57C197.699 196.642 197.649 196.732 197.609 196.84C197.573 196.944 197.555 197.068 197.555 197.212V198.634C197.555 198.738 197.521 198.826 197.453 198.898C197.385 198.966 197.299 199 197.195 199ZM200.814 199.06C200.474 199.06 200.178 198.99 199.926 198.85C199.678 198.706 199.486 198.512 199.35 198.268C199.218 198.024 199.152 197.748 199.152 197.44C199.152 197.08 199.224 196.774 199.368 196.522C199.516 196.266 199.708 196.07 199.944 195.934C200.18 195.798 200.43 195.73 200.694 195.73C200.898 195.73 201.09 195.772 201.27 195.856C201.454 195.94 201.616 196.056 201.756 196.204C201.896 196.348 202.006 196.516 202.086 196.708C202.17 196.9 202.212 197.104 202.212 197.32C202.208 197.416 202.17 197.494 202.098 197.554C202.026 197.614 201.942 197.644 201.846 197.644H199.554L199.374 197.044H201.576L201.444 197.164V197.002C201.436 196.886 201.394 196.782 201.318 196.69C201.246 196.598 201.154 196.526 201.042 196.474C200.934 196.418 200.818 196.39 200.694 196.39C200.574 196.39 200.462 196.406 200.358 196.438C200.254 196.47 200.164 196.524 200.088 196.6C200.012 196.676 199.952 196.778 199.908 196.906C199.864 197.034 199.842 197.196 199.842 197.392C199.842 197.608 199.886 197.792 199.974 197.944C200.066 198.092 200.182 198.206 200.322 198.286C200.466 198.362 200.618 198.4 200.778 198.4C200.926 198.4 201.044 198.388 201.132 198.364C201.22 198.34 201.29 198.312 201.342 198.28C201.398 198.244 201.448 198.214 201.492 198.19C201.564 198.154 201.632 198.136 201.696 198.136C201.784 198.136 201.856 198.166 201.912 198.226C201.972 198.286 202.002 198.356 202.002 198.436C202.002 198.544 201.946 198.642 201.834 198.73C201.73 198.818 201.584 198.896 201.396 198.964C201.208 199.028 201.014 199.06 200.814 199.06ZM205.469 194.56C205.573 194.56 205.659 194.594 205.727 194.662C205.795 194.73 205.829 194.818 205.829 194.926V198.634C205.829 198.738 205.795 198.826 205.727 198.898C205.659 198.966 205.573 199 205.469 199C205.365 199 205.279 198.966 205.211 198.898C205.143 198.826 205.109 198.738 205.109 198.634V198.34L205.241 198.394C205.241 198.446 205.213 198.51 205.157 198.586C205.101 198.658 205.025 198.73 204.929 198.802C204.833 198.874 204.719 198.936 204.587 198.988C204.459 199.036 204.319 199.06 204.167 199.06C203.891 199.06 203.641 198.99 203.417 198.85C203.193 198.706 203.015 198.51 202.883 198.262C202.755 198.01 202.691 197.722 202.691 197.398C202.691 197.07 202.755 196.782 202.883 196.534C203.015 196.282 203.191 196.086 203.411 195.946C203.631 195.802 203.875 195.73 204.143 195.73C204.315 195.73 204.473 195.756 204.617 195.808C204.761 195.86 204.885 195.926 204.989 196.006C205.097 196.086 205.179 196.168 205.235 196.252C205.295 196.332 205.325 196.4 205.325 196.456L205.109 196.534V194.926C205.109 194.822 205.143 194.736 205.211 194.668C205.279 194.596 205.365 194.56 205.469 194.56ZM204.257 198.4C204.433 198.4 204.587 198.356 204.719 198.268C204.851 198.18 204.953 198.06 205.025 197.908C205.101 197.756 205.139 197.586 205.139 197.398C205.139 197.206 205.101 197.034 205.025 196.882C204.953 196.73 204.851 196.61 204.719 196.522C204.587 196.434 204.433 196.39 204.257 196.39C204.085 196.39 203.933 196.434 203.801 196.522C203.669 196.61 203.565 196.73 203.489 196.882C203.417 197.034 203.381 197.206 203.381 197.398C203.381 197.586 203.417 197.756 203.489 197.908C203.565 198.06 203.669 198.18 203.801 198.268C203.933 198.356 204.085 198.4 204.257 198.4ZM209.952 195.73C210.232 195.73 210.482 195.802 210.702 195.946C210.926 196.086 211.102 196.28 211.23 196.528C211.362 196.776 211.428 197.064 211.428 197.392C211.428 197.72 211.362 198.01 211.23 198.262C211.102 198.51 210.928 198.706 210.708 198.85C210.492 198.99 210.248 199.06 209.976 199.06C209.816 199.06 209.666 199.034 209.526 198.982C209.386 198.93 209.262 198.864 209.154 198.784C209.05 198.704 208.968 198.624 208.908 198.544C208.852 198.46 208.824 198.39 208.824 198.334L209.01 198.256V198.694C209.01 198.798 208.976 198.886 208.908 198.958C208.84 199.026 208.754 199.06 208.65 199.06C208.546 199.06 208.46 199.026 208.392 198.958C208.324 198.89 208.29 198.802 208.29 198.694V194.926C208.29 194.822 208.324 194.736 208.392 194.668C208.46 194.596 208.546 194.56 208.65 194.56C208.754 194.56 208.84 194.596 208.908 194.668C208.976 194.736 209.01 194.822 209.01 194.926V196.45L208.908 196.396C208.908 196.344 208.936 196.282 208.992 196.21C209.048 196.134 209.124 196.06 209.22 195.988C209.316 195.912 209.426 195.85 209.55 195.802C209.678 195.754 209.812 195.73 209.952 195.73ZM209.862 196.39C209.686 196.39 209.532 196.434 209.4 196.522C209.268 196.61 209.164 196.73 209.088 196.882C209.016 197.03 208.98 197.2 208.98 197.392C208.98 197.58 209.016 197.752 209.088 197.908C209.164 198.06 209.268 198.18 209.4 198.268C209.532 198.356 209.686 198.4 209.862 198.4C210.038 198.4 210.19 198.356 210.318 198.268C210.45 198.18 210.552 198.06 210.624 197.908C210.7 197.752 210.738 197.58 210.738 197.392C210.738 197.2 210.7 197.03 210.624 196.882C210.552 196.73 210.45 196.61 210.318 196.522C210.19 196.434 210.038 196.39 209.862 196.39ZM214.44 195.79C214.544 195.79 214.63 195.826 214.698 195.898C214.766 195.966 214.8 196.052 214.8 196.156V198.706C214.8 199.074 214.73 199.366 214.59 199.582C214.454 199.802 214.27 199.96 214.038 200.056C213.806 200.152 213.546 200.2 213.258 200.2C213.13 200.2 212.994 200.19 212.85 200.17C212.706 200.15 212.588 200.12 212.496 200.08C212.376 200.028 212.292 199.962 212.244 199.882C212.2 199.806 212.192 199.724 212.22 199.636C212.256 199.52 212.314 199.44 212.394 199.396C212.474 199.356 212.558 199.352 212.646 199.384C212.71 199.404 212.794 199.434 212.898 199.474C213.002 199.518 213.122 199.54 213.258 199.54C213.442 199.54 213.594 199.514 213.714 199.462C213.838 199.414 213.93 199.33 213.99 199.21C214.054 199.094 214.086 198.934 214.086 198.73V198.328L214.212 198.472C214.144 198.604 214.058 198.714 213.954 198.802C213.854 198.886 213.734 198.95 213.594 198.994C213.454 199.038 213.294 199.06 213.114 199.06C212.902 199.06 212.716 199.012 212.556 198.916C212.4 198.816 212.278 198.68 212.19 198.508C212.102 198.332 212.058 198.132 212.058 197.908V196.156C212.058 196.052 212.092 195.966 212.16 195.898C212.228 195.826 212.314 195.79 212.418 195.79C212.522 195.79 212.608 195.826 212.676 195.898C212.744 195.966 212.778 196.052 212.778 196.156V197.692C212.778 197.952 212.834 198.136 212.946 198.244C213.062 198.348 213.222 198.4 213.426 198.4C213.566 198.4 213.684 198.374 213.78 198.322C213.876 198.266 213.95 198.186 214.002 198.082C214.054 197.974 214.08 197.844 214.08 197.692V196.156C214.08 196.052 214.114 195.966 214.182 195.898C214.25 195.826 214.336 195.79 214.44 195.79ZM217.699 194.794C217.755 194.794 217.813 194.81 217.873 194.842C217.937 194.87 217.985 194.908 218.017 194.956L219.475 197.2L219.175 197.188L220.669 194.956C220.745 194.848 220.843 194.794 220.963 194.794C221.059 194.794 221.145 194.828 221.221 194.896C221.297 194.964 221.335 195.052 221.335 195.16V198.634C221.335 198.738 221.301 198.826 221.233 198.898C221.165 198.966 221.075 199 220.963 199C220.851 199 220.759 198.966 220.687 198.898C220.619 198.826 220.585 198.738 220.585 198.634V195.808L220.819 195.862L219.595 197.728C219.559 197.772 219.513 197.81 219.457 197.842C219.405 197.874 219.351 197.888 219.295 197.884C219.243 197.888 219.189 197.874 219.133 197.842C219.081 197.81 219.037 197.772 219.001 197.728L217.855 195.916L218.011 195.598V198.634C218.011 198.738 217.979 198.826 217.915 198.898C217.851 198.966 217.767 199 217.663 199C217.563 199 217.481 198.966 217.417 198.898C217.353 198.826 217.321 198.738 217.321 198.634V195.16C217.321 195.06 217.357 194.974 217.429 194.902C217.505 194.83 217.595 194.794 217.699 194.794ZM224.535 198.34C224.631 198.34 224.711 198.372 224.775 198.436C224.839 198.5 224.871 198.58 224.871 198.676C224.871 198.768 224.839 198.846 224.775 198.91C224.711 198.97 224.631 199 224.535 199H222.495C222.391 199 222.309 198.968 222.249 198.904C222.189 198.84 222.159 198.758 222.159 198.658C222.159 198.558 222.195 198.47 222.267 198.394L223.575 196.996C223.723 196.836 223.839 196.672 223.923 196.504C224.011 196.336 224.055 196.19 224.055 196.066C224.055 195.866 223.997 195.706 223.881 195.586C223.765 195.462 223.611 195.4 223.419 195.4C223.343 195.4 223.265 195.418 223.185 195.454C223.105 195.49 223.027 195.54 222.951 195.604C222.879 195.668 222.811 195.742 222.747 195.826C222.699 195.89 222.651 195.93 222.603 195.946C222.555 195.962 222.511 195.97 222.471 195.97C222.383 195.97 222.301 195.938 222.225 195.874C222.153 195.806 222.117 195.728 222.117 195.64C222.117 195.572 222.139 195.506 222.183 195.442C222.231 195.378 222.289 195.312 222.357 195.244C222.457 195.144 222.569 195.056 222.693 194.98C222.817 194.904 222.945 194.846 223.077 194.806C223.209 194.762 223.337 194.74 223.461 194.74C223.729 194.74 223.961 194.794 224.157 194.902C224.357 195.006 224.511 195.156 224.619 195.352C224.727 195.544 224.781 195.772 224.781 196.036C224.781 196.256 224.715 196.502 224.583 196.774C224.455 197.042 224.281 197.294 224.061 197.53L223.251 198.394L223.185 198.34H224.535ZM227.075 199C226.963 199 226.871 198.966 226.799 198.898C226.727 198.826 226.691 198.738 226.691 198.634V195.154H227.471V198.634C227.471 198.738 227.433 198.826 227.357 198.898C227.285 198.966 227.191 199 227.075 199ZM225.749 195.49C225.645 195.49 225.557 195.458 225.485 195.394C225.417 195.33 225.383 195.246 225.383 195.142C225.383 195.038 225.417 194.956 225.485 194.896C225.557 194.832 225.645 194.8 225.749 194.8H228.413C228.517 194.8 228.603 194.832 228.671 194.896C228.743 194.96 228.779 195.044 228.779 195.148C228.779 195.252 228.743 195.336 228.671 195.4C228.603 195.46 228.517 195.49 228.413 195.49H225.749Z" fill="white"/>
<rect x="225" y="108" width="24" height="24" fill="#AF1A1C"/>
<circle cx="225" cy="132" r="24" fill="#E32F32"/>
<path d="M120.938 141.441C123.221 143.738 124.365 146.533 124.365 149.827V154.538C124.365 157.824 123.221 160.617 120.938 162.914C118.699 165.211 115.802 166.37 112.248 166.391H112.197C108.602 166.391 105.679 165.235 103.427 162.924C101.143 160.638 100 157.845 100 154.546V149.835C100 146.53 101.143 143.735 103.427 141.449C105.665 139.157 108.562 138.003 112.117 137.982V137.971H112.168C115.744 137.971 118.667 139.127 120.938 141.438V141.441ZM117.324 159.356C117.58 159.1 117.809 158.821 118.006 158.517C118.203 158.213 118.374 157.904 118.521 157.589C118.664 157.272 118.787 156.958 118.886 156.641C118.984 156.324 119.067 156.022 119.133 155.732C119.285 155.047 119.368 154.36 119.381 153.667V150.674C119.368 149.984 119.285 149.294 119.133 148.609C119.067 148.318 118.984 148.017 118.886 147.7C118.787 147.383 118.664 147.069 118.521 146.757C118.377 146.445 118.203 146.136 118.006 145.832C117.809 145.528 117.583 145.249 117.324 144.993C116.935 144.585 116.487 144.223 115.981 143.906C115.762 143.767 115.523 143.634 115.256 143.506C114.99 143.378 114.699 143.261 114.387 143.154C114.076 143.05 113.74 142.965 113.38 142.904C113.02 142.842 112.645 142.808 112.25 142.8H112.17C111.768 142.8 111.389 142.832 111.03 142.893C110.67 142.957 110.334 143.039 110.017 143.143C109.7 143.25 109.407 143.367 109.138 143.498C108.869 143.628 108.623 143.764 108.408 143.903C107.893 144.225 107.44 144.59 107.046 144.998C106.79 145.254 106.561 145.534 106.364 145.832C106.166 146.131 105.996 146.44 105.849 146.757C105.705 147.074 105.583 147.388 105.484 147.706C105.386 148.023 105.303 148.324 105.236 148.614C105.084 149.299 105.002 149.987 104.989 150.68V153.683C105.002 154.381 105.084 155.068 105.236 155.748C105.303 156.038 105.386 156.34 105.484 156.657C105.583 156.974 105.705 157.288 105.849 157.6C105.993 157.912 106.166 158.218 106.364 158.519C106.561 158.818 106.787 159.098 107.046 159.354C107.44 159.769 107.891 160.134 108.4 160.449C108.618 160.587 108.858 160.723 109.124 160.854C109.391 160.984 109.679 161.102 109.988 161.206C110.297 161.307 110.63 161.392 110.99 161.459C111.349 161.525 111.725 161.557 112.12 161.557V161.547H112.189C112.591 161.547 112.97 161.515 113.329 161.453C113.689 161.389 114.025 161.309 114.342 161.206C114.659 161.104 114.952 160.987 115.227 160.854C115.501 160.723 115.746 160.587 115.962 160.449C116.477 160.132 116.93 159.767 117.324 159.354V159.356Z" fill="white"/>
<path d="M134.165 155.831H131.498V160.612C131.498 161.401 131.426 162.088 131.285 162.667C131.143 163.245 130.954 163.741 130.722 164.148C130.488 164.556 130.221 164.889 129.923 165.145C129.625 165.401 129.318 165.606 129.009 165.758C128.279 166.112 127.453 166.251 126.531 166.174V138.785H139.3C140.438 138.785 141.467 138.923 142.386 139.2C143.306 139.477 144.121 139.84 144.835 140.293C145.55 140.743 146.165 141.26 146.682 141.838C147.199 142.417 147.623 143.008 147.956 143.611C148.289 144.213 148.534 144.804 148.691 145.383C148.849 145.961 148.929 146.478 148.929 146.934C148.929 147.605 148.875 148.229 148.771 148.799C148.665 149.372 148.507 149.913 148.292 150.419C148.078 150.925 147.809 151.408 147.487 151.866C147.164 152.325 146.789 152.77 146.36 153.204C145.254 154.291 143.929 155.035 142.389 155.437L142.33 155.456L149.461 165.817H143.25L138.075 157.867C137.891 157.492 137.627 157.153 137.286 156.849C137.134 156.724 136.961 156.602 136.769 156.479C136.574 156.356 136.348 156.25 136.092 156.154C135.836 156.058 135.548 155.981 135.229 155.922C134.909 155.863 134.554 155.834 134.168 155.834L134.165 155.831ZM143.964 146.934C143.964 146.715 143.935 146.481 143.876 146.227C143.817 145.974 143.713 145.721 143.564 145.471C143.415 145.22 143.218 144.978 142.973 144.746C142.725 144.511 142.416 144.306 142.045 144.128C141.672 143.949 141.232 143.808 140.721 143.698C140.209 143.589 139.615 143.536 138.938 143.536H131.501V149.164C131.599 149.428 131.738 149.657 131.916 149.852C132.095 150.046 132.295 150.211 132.519 150.35C132.742 150.488 132.977 150.6 133.225 150.686C133.473 150.771 133.72 150.84 133.971 150.894C134.544 151.011 135.167 151.061 135.839 151.043H138.941C139.769 151.043 140.5 150.923 141.129 150.683C141.757 150.443 142.288 150.105 142.725 149.67C142.93 149.465 143.109 149.268 143.263 149.079C143.418 148.887 143.548 148.69 143.652 148.482C143.756 148.274 143.836 148.047 143.889 147.8C143.943 147.552 143.969 147.264 143.969 146.936L143.964 146.934Z" fill="white"/>
<path d="M161.054 134L153.318 154.253L157.099 156.768L161.259 145.294L164.542 154.652H159.023L158.823 158.391L162.16 158.343L168.393 153.824L161.054 134Z" fill="white"/>
<path d="M170.112 160.097L170.093 160.105L169.706 159.063L166.746 161.229L167.276 162.727L167.372 163.001L167.806 164.211C168.06 164.845 168.398 165.41 168.691 165.89C168.984 166.37 169.285 166.785 169.595 167.137C169.904 167.489 170.213 167.782 170.522 168.019C170.831 168.256 171.129 168.451 171.412 168.605C172.081 168.965 172.835 169.256 173.509 169.288L170.112 160.097Z" fill="white"/>
<path d="M180.999 149.928H139.908L152.632 158.935L147.868 174.225L180.999 149.928ZM170.292 153.36L154.746 164.499L156.952 157.642L150.703 153.36H170.29H170.292Z" fill="#34C759"/>
<path d="M106.285 180.24C102.91 180.24 100.435 177.975 100.435 174.75C100.435 171.525 102.91 169.26 106.285 169.26C108.34 169.26 109.96 170.01 110.995 171.36L108.76 173.355C108.145 172.575 107.41 172.125 106.465 172.125C104.995 172.125 104.005 173.145 104.005 174.75C104.005 176.355 104.995 177.375 106.465 177.375C107.41 177.375 108.145 176.925 108.76 176.145L110.995 178.14C109.96 179.49 108.34 180.24 106.285 180.24ZM119.731 180L119.026 178.17H115.036L114.331 180H110.731L115.321 169.5H118.801L123.391 180H119.731ZM116.011 175.62H118.051L117.031 172.98L116.011 175.62ZM127.871 180.24C126.116 180.24 124.346 179.805 123.296 179.16L124.436 176.58C125.426 177.165 126.746 177.54 127.901 177.54C128.906 177.54 129.266 177.33 129.266 176.97C129.266 175.65 123.461 176.715 123.461 172.8C123.461 170.85 125.096 169.26 128.351 169.26C129.761 169.26 131.216 169.56 132.311 170.175L131.246 172.74C130.211 172.215 129.236 171.96 128.321 171.96C127.286 171.96 126.956 172.26 126.956 172.62C126.956 173.88 132.761 172.83 132.761 176.7C132.761 178.62 131.126 180.24 127.871 180.24ZM140.624 169.5H144.164V180H140.624V176.13H137.354V180H133.814V169.5H137.354V173.22H140.624V169.5Z" fill="white"/>
<path d="M80 84C80 70.7452 90.7452 60 104 60H225C238.255 60 249 70.7452 249 84V108H104C90.7452 108 80 97.2548 80 84Z" fill="#AF1A1C"/>
<g clip-path="url(#clip0_12442_20291)">
<path d="M229 107.807C226.775 107.807 224.55 107.806 222.325 107.807C213.231 107.817 204.136 107.827 195.041 107.838C191.252 107.842 187.461 107.844 183.671 107.856C167.179 107.911 150.686 107.967 134.193 108.027C120.529 108.076 106.867 108.132 93.203 108.185C92.0227 108.189 92.0227 108.185 92.0211 106.827C92.0146 101.927 92.0066 97.0267 92.0001 92.1263C91.9985 90.8485 92.0017 90.834 93.0835 90.9647C98.7215 91.6526 104.36 92.3513 109.996 93.0428C115.768 93.7525 121.54 94.4512 127.31 95.1663C133.187 95.8941 139.064 96.6419 144.941 97.3715C147.907 97.7399 150.876 98.0757 153.841 98.4478C157.872 98.9523 161.901 99.4895 165.934 99.9905C170.983 100.618 176.036 101.214 181.085 101.838C186.8 102.546 192.513 103.281 198.23 103.989C203.306 104.617 208.384 105.216 213.462 105.836C218.641 106.47 223.821 107.114 228.998 107.753V107.806L229 107.807Z" fill="#93CED9"/>
<path d="M219.794 104.328C217.767 104.073 215.742 103.812 213.712 103.561C207.224 102.756 200.735 101.959 194.246 101.152C187.267 100.286 180.291 99.4047 173.312 98.5445C165.875 97.6297 158.433 96.7396 150.996 95.8229C146.121 95.2233 141.251 94.5876 136.378 93.9822C130.627 93.2688 124.873 92.5762 119.122 91.8647C115.335 91.3971 111.55 90.9106 107.765 90.4336C106.344 90.2537 106.239 90.1979 106.414 88.9416C106.876 85.6187 107.395 82.3009 107.934 78.7037C145.283 87.2148 182.551 95.7069 219.82 104.197C219.811 104.239 219.803 104.282 219.794 104.324L219.794 104.328Z" fill="#EECDA6"/>
<path d="M122.614 68.0315C122.028 71.9067 121.463 75.4809 120.961 79.0606L203.25 98.6726L122.614 68.0315Z" fill="#20B37C"/>
<path d="M139.618 62.6265C138.826 65.6449 138.077 68.4265 137.377 71.219L201.131 95.4302L139.618 62.6265Z" fill="#CABEDB"/>
</g>
<path d="M81.5 84C81.5 71.5736 91.5736 61.5 104 61.5H225C237.426 61.5 247.5 71.5736 247.5 84V106.5H104C91.5736 106.5 81.5 96.4264 81.5 84Z" stroke="#AF1A1C" stroke-width="3"/>
<path d="M201 149C201 142.373 206.373 137 213 137H249V173H213C206.373 173 201 167.627 201 161V149Z" fill="#AF1A1C"/>
<circle cx="219" cy="155" r="6" fill="#E32F32"/>
<defs>
<filter id="filter0_d_12442_20291" x="0" y="0" width="329" height="311" filterUnits="userSpaceOnUse" color-interpolation-filters="sRGB">
<feFlood flood-opacity="0" result="BackgroundImageFix"/>
<feColorMatrix in="SourceAlpha" type="matrix" values="0 0 0 0 0 0 0 0 0 0 0 0 0 0 0 0 0 0 127 0" result="hardAlpha"/>
<feOffset dy="20"/>
<feGaussianBlur stdDeviation="40"/>
<feComposite in2="hardAlpha" operator="out"/>
<feColorMatrix type="matrix" values="0 0 0 0 0 0 0 0 0 0 0 0 0 0 0 0 0 0 0.1 0"/>
<feBlend mode="normal" in2="BackgroundImageFix" result="effect1_dropShadow_12442_20291"/>
<feBlend mode="normal" in="SourceGraphic" in2="effect1_dropShadow_12442_20291" result="shape"/>
</filter>
<clipPath id="clip0_12442_20291">
<path d="M80 84C80 70.7452 90.7452 60 104 60H225C238.255 60 249 70.7452 249 84V108H104C90.7452 108 80 97.2548 80 84Z" fill="white"/>
</clipPath>
</defs>
</svg>
